# This file uses centimeters as units for non-parametric coordinates.

mtllib yellow-floor.mtl
g default
v -930.026794 -0.000067 -885.739868
v 885.739868 -0.000067 -885.739868
v -930.026794 0.000067 885.739868
v 885.739868 0.000067 885.739868
v -930.026794 -22.143431 885.739868
v -930.026794 -22.143564 -885.739868
v 885.739868 -22.143564 -885.739868
v 885.739868 -22.143431 885.739868
vt -4.743016 -4.750000
vt 5.756984 -4.750000
vt 5.756984 5.750000
vt -4.743016 5.750000
vt 0.122366 0.676863
vt 0.162366 0.676863
vt 0.162366 0.716863
vt 0.122366 0.716863
vt 0.122366 0.676863
vt 0.162366 0.676863
vt 0.122366 0.716863
vt 0.122366 0.676863
vt 0.162366 0.676863
vt 0.162366 0.716863
vt 0.122366 0.676863
vt 0.162366 0.676863
vt 0.162366 0.716863
vt 0.122366 0.716863
vt 0.122366 0.676863
vt 0.162366 0.676863
vt 0.162366 0.716863
vt 0.122366 0.716863
vn 0.000000 1.000000 0.000000
vn 0.000000 1.000000 0.000000
vn 0.000000 1.000000 0.000000
vn 0.000000 1.000000 0.000000
vn 0.000000 -1.000000 0.000000
vn 0.000000 -1.000000 0.000000
vn 0.000000 -1.000000 0.000000
vn 0.000000 -1.000000 0.000000
vn 1.000000 0.000000 0.000000
vn 1.000000 0.000000 0.000000
vn 1.000000 0.000000 0.000000
vn 1.000000 0.000000 0.000000
vn -1.000000 0.000000 0.000000
vn -1.000000 0.000000 0.000000
vn -1.000000 0.000000 0.000000
vn -1.000000 0.000000 0.000000
vn 0.000000 0.000000 1.000000
vn 0.000000 0.000000 1.000000
vn 0.000000 0.000000 1.000000
vn 0.000000 0.000000 1.000000
vn 0.000000 0.000000 -1.000000
vn 0.000000 0.000000 -1.000000
vn 0.000000 0.000000 -1.000000
vn 0.000000 0.000000 -1.000000
s off
g blackwhite_floor:Floor
usemtl blackwhite_floor:FloorSG
f 1/1/1 3/2/2 4/3/3 2/4/4
f 6/5/5 7/6/6 8/7/7 5/8/8
f 2/9/9 4/10/10 8/7/11 7/11/12
f 3/12/13 1/13/14 6/14/15 5/8/16
f 4/15/17 3/16/18 5/17/19 8/18/20
f 1/19/21 2/20/22 7/21/23 6/22/24
