# This file uses centimeters as units for non-parametric coordinates.

mtllib box6.mtl
g default
v -94.042327 0.356647 40.809119
v -94.042327 155.466681 40.809094
v -94.042327 0.356633 -40.809094
v -94.042327 155.466668 -40.809119
v 94.042320 0.356647 40.809119
v 94.042320 155.466681 40.809094
v 94.042320 0.356633 -40.809094
v 94.042320 155.466668 -40.809119
vt 0.966470 0.340852
vt 0.653633 0.333239
vt 0.670113 0.340852
vt 0.966470 0.095385
vt 0.966470 0.099706
vt 0.805867 0.095385
vt 0.653633 0.228870
vt 0.653633 0.099706
vt 0.670113 0.340852
vt 0.670113 0.095385
vt 0.653633 0.095385
vt 0.966470 0.340852
vt 0.653633 0.340853
vt 0.966470 0.204075
vt 0.653633 0.204075
vt 0.966470 0.228870
vt 0.805867 0.340852
vt 0.805867 0.095385
vt 0.966470 0.333239
vt 0.805867 0.340853
vt 0.670113 0.095385
vt 0.653633 0.095385
vt 0.966470 0.095385
vt 0.653633 0.340853
vn -1.000000 0.000000 -0.000000
vn -1.000000 0.000000 -0.000000
vn -1.000000 0.000000 -0.000000
vn -1.000000 0.000000 -0.000000
vn 0.000000 -0.000000 -1.000000
vn 0.000000 -0.000000 -1.000000
vn 0.000000 -0.000000 -1.000000
vn 0.000000 -0.000000 -1.000000
vn 1.000000 0.000000 0.000000
vn 1.000000 0.000000 0.000000
vn 1.000000 0.000000 0.000000
vn 1.000000 0.000000 0.000000
vn 0.000000 0.000000 1.000000
vn 0.000000 0.000000 1.000000
vn 0.000000 0.000000 1.000000
vn 0.000000 0.000000 1.000000
vn 0.000000 -1.000000 0.000000
vn 0.000000 -1.000000 0.000000
vn 0.000000 -1.000000 0.000000
vn 0.000000 -1.000000 0.000000
vn 0.000000 1.000000 -0.000000
vn 0.000000 1.000000 -0.000000
vn 0.000000 1.000000 -0.000000
vn 0.000000 1.000000 -0.000000
s off
g Boxs_002
usemtl Boxs_001SG
f 1/21/1 2/9/2 4/17/3 3/6/4
f 3/22/5 4/24/6 8/1/7 7/4/8
f 7/18/9 8/20/10 6/3/11 5/10/12
f 5/23/13 6/12/14 2/13/15 1/11/16
f 3/7/17 7/16/18 5/5/19 1/8/20
f 8/19/21 4/2/22 2/15/23 6/14/24
