# This file uses centimeters as units for non-parametric coordinates.

mtllib trash.mtl
g default
v 90.606265 8.663193 57.010146
v 93.005372 109.274383 58.333673
v -91.767604 8.663185 57.010154
v -94.166725 109.274374 58.333681
v 90.606260 8.663193 -57.102756
v 93.005367 109.274383 -58.426289
v -91.767609 8.663185 -57.102748
v -94.166730 109.274374 -58.426281
v 97.502173 109.274383 63.520391
v -98.663520 109.274374 63.520400
v -98.663525 109.274374 -63.612999
v 97.502167 109.274383 -63.613008
v 90.985632 115.751795 57.399275
v -92.146974 115.751787 57.399283
v -92.146979 115.751787 -57.491877
v 90.985627 115.751795 -57.491885
v 97.502173 115.751795 63.520391
v -98.663520 115.751787 63.520400
v -98.663526 115.751787 -63.612999
v 97.502167 115.751795 -63.613008
v 90.985633 100.054268 57.399275
v -92.146974 100.054260 57.399283
v -92.146979 100.054260 -57.491877
v 90.985628 100.054268 -57.491885
v -92.146977 110.721945 -1.629172
v 90.985630 100.054268 -1.685772
v 38.844060 100.054266 -57.491882
v 29.398946 100.054265 57.399278
v 45.927576 117.781129 11.833664
v 76.492386 0.490359 54.324570
v 76.492386 13.561717 54.324570
v 63.421028 0.490358 54.324571
v 63.421028 13.561717 54.324571
v 76.492386 0.490359 41.253203
v 76.492385 13.561717 41.253203
v 63.421028 0.490358 41.253203
v 63.421027 13.561717 41.253203
v 76.492382 0.490347 -54.417083
v 76.492381 13.561717 -54.417083
v 63.421023 0.490346 -54.417082
v 63.421023 13.561717 -54.417082
v 76.492382 0.490347 -41.345713
v 76.492382 13.561717 -41.345713
v 63.421024 0.490346 -41.345712
v 63.421023 13.561717 -41.345712
v -77.653725 0.490340 54.324577
v -77.653725 13.561710 54.324577
v -64.582361 0.490341 54.324576
v -64.582361 13.561711 54.324576
v -77.653725 0.490340 41.253213
v -77.653726 13.561710 41.253213
v -64.582361 0.490341 41.253212
v -64.582362 13.561711 41.253212
v -77.653729 0.490328 -54.417076
v -77.653730 13.561698 -54.417076
v -64.582365 0.490329 -54.417077
v -64.582366 13.561699 -54.417077
v -77.653729 0.490328 -41.345706
v -77.653729 13.561698 -41.345706
v -64.582365 0.490329 -41.345707
v -64.582365 13.561699 -41.345707
vt 0.421428 0.654953
vt 0.413748 0.598707
vt 0.497714 0.542461
vt 0.466942 0.683395
vt 0.722076 0.517153
vt 0.508137 0.598707
vt 0.508137 0.609130
vt 0.524215 0.716163
vt 0.526239 0.609130
vt 0.403325 0.598707
vt 0.460792 0.716163
vt 0.515816 0.598707
vt 0.525069 0.739281
vt 0.518404 0.709976
vt 0.606961 0.698808
vt 0.578512 0.744830
vt 0.844460 0.518763
vt 0.526239 0.609130
vt 0.524215 0.529931
vt 0.403325 0.609130
vt 0.466942 0.716163
vt 0.497714 0.665376
vt 0.722076 0.680361
vt 0.508137 0.665376
vt 0.844460 0.681971
vt 0.421428 0.598707
vt 0.506767 0.163603
vt 0.526239 0.598707
vt 0.403520 0.716163
vt 0.613102 0.743253
vt 0.422440 0.010591
vt 0.683859 0.010591
vt 0.562194 0.158439
vt 0.421428 0.665376
vt 0.515816 0.609130
vt 0.497714 0.654953
vt 0.413748 0.598707
vt 0.431851 0.598707
vt 0.460792 0.562699
vt 0.409331 0.709976
vt 0.587866 0.559054
vt 0.526239 0.609130
vt 0.421428 0.598707
vt 0.497714 0.598707
vt 0.497714 0.609130
vt 0.508137 0.609130
vt 0.403520 0.529931
vt 0.466942 0.529931
vt 0.431851 0.665376
vt 0.665310 0.744567
vt 0.583375 0.232431
vt 0.466942 0.562699
vt 0.403325 0.609130
vt 0.497714 0.598707
vt 0.460792 0.716163
vt 0.515816 0.598707
vt 0.497714 0.609130
vt 0.413748 0.609130
vt 0.431851 0.609130
vt 0.497714 0.598707
vt 0.402685 0.514523
vt 0.508137 0.609130
vt 0.515816 0.609130
vt 0.613102 0.668338
vt 0.722182 0.232431
vt 0.421428 0.609130
vt 0.519291 0.711894
vt 0.413748 0.598707
vt 0.431851 0.654953
vt 0.466942 0.716163
vt 0.583375 0.010591
vt 0.431851 0.609130
vt 0.702953 0.010591
vt 0.497714 0.598707
vt 0.508137 0.542461
vt 0.431851 0.609130
vt 0.421428 0.609130
vt 0.409331 0.536117
vt 0.403325 0.598707
vt 0.421428 0.609130
vt 0.408444 0.534200
vt 0.524215 0.529931
vt 0.431851 0.609130
vt 0.702953 0.150345
vt 0.431851 0.598707
vt 0.403325 0.598707
vt 0.421428 0.609130
vt 0.515816 0.609130
vt 0.422440 0.169928
vt 0.413748 0.598707
vt 0.413748 0.609130
vt 0.460792 0.683395
vt 0.562194 0.010591
vt 0.431851 0.598707
vt 0.421428 0.542461
vt 0.403520 0.716163
vt 0.490391 0.010591
vt 0.508137 0.552884
vt 0.526239 0.598707
vt 0.460792 0.529931
vt 0.497714 0.609130
vt 0.403325 0.598707
vt 0.587866 0.698808
vt 0.600842 0.627005
vt 0.683859 0.150345
vt 0.684404 0.744567
vt 0.524215 0.716163
vt 0.606961 0.559054
vt 0.403520 0.529931
vt 0.613102 0.520490
vt 0.422440 0.233354
vt 0.515816 0.609130
vt 0.683859 0.078473
vt 0.508137 0.598707
vt 0.578512 0.517153
vt 0.466942 0.683395
vt 0.431851 0.552884
vt 0.413748 0.609130
vt 0.403325 0.609130
vt 0.515816 0.598707
vt 0.844460 0.657570
vt 0.421428 0.552884
vt 0.490322 0.233354
vt 0.508137 0.598707
vt 0.844460 0.820778
vt 0.525069 0.517441
vt 0.722076 0.822388
vt 0.700895 0.520071
vt 0.518404 0.536117
vt 0.526239 0.598707
vt 0.431851 0.598707
vt 0.508137 0.598707
vt 0.497714 0.552884
vt 0.684404 0.521803
vt 0.421428 0.598707
vt 0.460792 0.683395
vt 0.519291 0.534200
vt 0.413748 0.609130
vt 0.700895 0.741911
vt 0.460792 0.562699
vt 0.508137 0.654953
vt 0.431851 0.542461
vt 0.515816 0.598707
vt 0.526239 0.609130
vt 0.722182 0.010591
vt 0.665310 0.681141
vt 0.632197 0.520490
vt 0.408444 0.711894
vt 0.466942 0.529931
vt 0.421428 0.598707
vt 0.403325 0.609130
vt 0.466942 0.562699
vt 0.497714 0.609130
vt 0.508137 0.609130
vt 0.722076 0.659180
vt 0.562194 0.233354
vt 0.402685 0.742200
vt 0.526239 0.598707
vt 0.665310 0.521803
vt 0.632197 0.743253
vt 0.460792 0.529931
vn 0.000000 -0.013154 0.999913
vn 0.000000 -0.013154 0.999913
vn 0.000000 -0.013154 0.999913
vn 0.000000 -0.013154 0.999913
vn -0.999716 -0.023839 0.000000
vn -0.999716 -0.023839 0.000000
vn -0.999716 -0.023839 0.000000
vn -0.999716 -0.023839 0.000000
vn -0.000000 -0.013154 -0.999913
vn -0.000000 -0.013154 -0.999913
vn -0.000000 -0.013154 -0.999913
vn -0.000000 -0.013154 -0.999913
vn 0.999716 -0.023839 -0.000000
vn 0.999716 -0.023839 -0.000000
vn 0.999716 -0.023839 -0.000000
vn 0.999716 -0.023839 -0.000000
vn 0.000000 -1.000000 -0.000000
vn 0.000000 -1.000000 -0.000000
vn 0.000000 -1.000000 -0.000000
vn 0.000000 -1.000000 -0.000000
vn 0.000000 -1.000000 -0.000000
vn 0.000000 -1.000000 -0.000000
vn 0.000000 -1.000000 -0.000000
vn 0.000000 -1.000000 -0.000000
vn 1.000000 0.000000 -0.000000
vn 1.000000 0.000000 -0.000000
vn 1.000000 0.000000 -0.000000
vn 1.000000 0.000000 -0.000000
vn 0.000000 -1.000000 -0.000000
vn 0.000000 -1.000000 -0.000000
vn 0.000000 -1.000000 -0.000000
vn 0.000000 -1.000000 -0.000000
vn 0.000000 -1.000000 -0.000000
vn 0.000000 -1.000000 -0.000000
vn 0.000000 -1.000000 -0.000000
vn 0.000000 -1.000000 -0.000000
vn 0.000000 -1.000000 -0.000000
vn 0.000000 -1.000000 -0.000000
vn 0.000000 -1.000000 -0.000000
vn 0.000000 -1.000000 -0.000000
vn 0.000000 -0.000000 1.000000
vn 0.000000 -0.000000 1.000000
vn 0.000000 -0.000000 1.000000
vn 0.000000 -0.000000 1.000000
vn 0.000000 -0.000000 1.000000
vn -1.000000 -0.000000 0.000000
vn -1.000000 -0.000000 0.000000
vn -1.000000 -0.000000 0.000000
vn -1.000000 -0.000000 0.000000
vn -0.000000 0.000000 -1.000000
vn -0.000000 0.000000 -1.000000
vn -0.000000 0.000000 -1.000000
vn -0.000000 0.000000 -1.000000
vn 0.000000 -0.000000 1.000000
vn 0.000000 -0.000000 1.000000
vn 0.000000 -0.000000 1.000000
vn 0.000000 -0.000000 1.000000
vn -0.000000 1.000000 -0.000001
vn -0.000000 1.000000 -0.000001
vn -0.000000 1.000000 -0.000001
vn -0.000000 1.000000 -0.000001
vn -0.000000 1.000000 0.000000
vn -0.000000 1.000000 0.000000
vn -0.000000 1.000000 0.000000
vn -0.000000 1.000000 0.000000
vn -0.000000 1.000000 0.000000
vn -0.000000 1.000000 0.000000
vn -0.000000 1.000000 0.000000
vn -0.000000 1.000000 0.000000
vn -0.000000 1.000000 0.000000
vn -0.000000 1.000000 0.000000
vn -0.000000 1.000000 0.000000
vn -0.000000 1.000000 0.000000
vn -0.014561 0.975303 -0.220389
vn -0.014561 0.975303 -0.220389
vn -0.014561 0.975303 -0.220389
vn -0.014561 0.975303 -0.220389
vn -0.000000 0.000000 -1.000000
vn -0.000000 0.000000 -1.000000
vn -0.000000 0.000000 -1.000000
vn -0.000000 0.000000 -1.000000
vn -0.000000 0.000000 -1.000000
vn -1.000000 -0.000000 0.000000
vn -1.000000 -0.000000 0.000000
vn -1.000000 -0.000000 0.000000
vn -1.000000 -0.000000 0.000000
vn -1.000000 -0.000000 0.000000
vn 1.000000 0.000001 -0.000000
vn 1.000000 0.000001 -0.000000
vn 1.000000 0.000001 -0.000000
vn 1.000000 0.000001 -0.000000
vn 1.000000 0.000001 -0.000000
vn 0.184598 0.963795 0.192414
vn 0.184598 0.963795 0.192414
vn 0.184598 0.963795 0.192414
vn 0.184598 0.963795 0.192414
vn -0.039536 0.965878 0.255963
vn -0.039536 0.965878 0.255963
vn -0.039536 0.965878 0.255963
vn -0.039536 0.965878 0.255963
vn 0.157602 0.976462 -0.147253
vn 0.157602 0.976462 -0.147253
vn 0.157602 0.976462 -0.147253
vn 0.157602 0.976462 -0.147253
vn 0.000000 -0.000000 1.000000
vn 0.000000 -0.000000 1.000000
vn 0.000000 -0.000000 1.000000
vn 0.000000 -0.000000 1.000000
vn -1.000000 -0.000000 0.000000
vn -1.000000 -0.000000 0.000000
vn -1.000000 -0.000000 0.000000
vn -1.000000 -0.000000 0.000000
vn -0.000000 0.000000 -1.000000
vn -0.000000 0.000000 -1.000000
vn -0.000000 0.000000 -1.000000
vn -0.000000 0.000000 -1.000000
vn 1.000000 0.000000 -0.000000
vn 1.000000 0.000000 -0.000000
vn 1.000000 0.000000 -0.000000
vn 1.000000 0.000000 -0.000000
vn 0.000000 -1.000000 -0.000000
vn 0.000000 -1.000000 -0.000000
vn 0.000000 -1.000000 -0.000000
vn 0.000000 -1.000000 -0.000000
vn -0.000000 0.000000 -1.000000
vn -0.000000 0.000000 -1.000000
vn -0.000000 0.000000 -1.000000
vn -0.000000 0.000000 -1.000000
vn -1.000000 -0.000000 0.000000
vn -1.000000 -0.000000 0.000000
vn -1.000000 -0.000000 0.000000
vn -1.000000 -0.000000 0.000000
vn 0.000000 -0.000000 1.000000
vn 0.000000 -0.000000 1.000000
vn 0.000000 -0.000000 1.000000
vn 0.000000 -0.000000 1.000000
vn 1.000000 0.000000 -0.000000
vn 1.000000 0.000000 -0.000000
vn 1.000000 0.000000 -0.000000
vn 1.000000 0.000000 -0.000000
vn 0.000000 -1.000000 -0.000000
vn 0.000000 -1.000000 -0.000000
vn 0.000000 -1.000000 -0.000000
vn 0.000000 -1.000000 -0.000000
vn 0.000000 -0.000000 1.000000
vn 0.000000 -0.000000 1.000000
vn 0.000000 -0.000000 1.000000
vn 0.000000 -0.000000 1.000000
vn 1.000000 0.000000 -0.000000
vn 1.000000 0.000000 -0.000000
vn 1.000000 0.000000 -0.000000
vn 1.000000 0.000000 -0.000000
vn -0.000000 0.000000 -1.000000
vn -0.000000 0.000000 -1.000000
vn -0.000000 0.000000 -1.000000
vn -0.000000 0.000000 -1.000000
vn -1.000000 -0.000000 0.000000
vn -1.000000 -0.000000 0.000000
vn -1.000000 -0.000000 0.000000
vn -1.000000 -0.000000 0.000000
vn 0.000000 -1.000000 -0.000000
vn 0.000000 -1.000000 -0.000000
vn 0.000000 -1.000000 -0.000000
vn 0.000000 -1.000000 -0.000000
vn -0.000000 0.000000 -1.000000
vn -0.000000 0.000000 -1.000000
vn -0.000000 0.000000 -1.000000
vn -0.000000 0.000000 -1.000000
vn 1.000000 0.000000 -0.000000
vn 1.000000 0.000000 -0.000000
vn 1.000000 0.000000 -0.000000
vn 1.000000 0.000000 -0.000000
vn 0.000000 -0.000000 1.000000
vn 0.000000 -0.000000 1.000000
vn 0.000000 -0.000000 1.000000
vn 0.000000 -0.000000 1.000000
vn -1.000000 -0.000000 0.000000
vn -1.000000 -0.000000 0.000000
vn -1.000000 -0.000000 0.000000
vn -1.000000 -0.000000 0.000000
vn 0.000000 -1.000000 -0.000000
vn 0.000000 -1.000000 -0.000000
vn 0.000000 -1.000000 -0.000000
vn 0.000000 -1.000000 -0.000000
s off
g Dumpster
usemtl DumpsterSG
f 1/128/1 2/115/2 4/16/3 3/139/4
f 3/25/5 4/23/6 8/127/7 7/125/8
f 7/13/9 8/157/10 6/61/11 5/126/12
f 5/121/13 6/155/14 2/5/15 1/17/16
f 3/145/17 7/71/18 5/51/19 1/65/20
f 6/137/21 8/67/22 11/8/23 12/19/24
f 9/136/25 12/140/26 20/152/27 17/4/28
f 4/148/29 2/81/30 9/109/31 10/96/32
f 2/81/33 6/137/34 12/19/35 9/109/36
f 8/67/37 4/148/38 10/96/39 11/8/40
f 16/106/41 15/134/42 23/159/43 27/146/44 24/50/45
f 11/39/46 10/92/47 18/116/48 19/52/49
f 12/11/50 11/161/51 19/149/52 20/21/53
f 10/100/54 9/55/55 17/70/56 18/48/57
f 13/78/58 14/40/59 18/29/60 17/47/61
f 14/40/62 15/14/63 19/107/64 18/29/65
f 15/14/66 16/129/67 20/82/68 19/107/69
f 16/129/70 13/78/71 17/47/72 20/82/73
f 23/31/74 25/97/75 29/27/76 27/89/77
f 14/147/78 13/160/79 21/30/80 28/64/81 22/110/82
f 13/84/83 16/73/84 24/32/85 26/113/86 21/105/87
f 15/108/88 14/15/89 22/103/90 25/104/91 23/41/92
f 26/123/93 29/27/94 28/33/95 21/156/96
f 28/33/97 29/27/98 25/97/99 22/93/100
f 27/89/101 29/27/102 26/123/103 24/111/104
f 30/10/105 31/151/106 33/91/107 32/68/108
f 32/43/109 33/87/110 37/83/111 36/131/112
f 36/90/113 37/118/114 35/20/115 34/86/116
f 34/85/117 35/72/118 31/77/119 30/26/120
f 32/122/121 36/117/122 34/142/123 30/95/124
f 38/79/125 40/2/126 41/138/127 39/53/128
f 40/132/129 44/74/130 45/101/131 41/62/132
f 44/37/133 42/102/134 43/119/135 45/58/136
f 42/54/137 38/124/138 39/46/139 43/45/140
f 40/98/141 38/75/142 42/3/143 44/133/144
f 46/130/145 48/56/146 49/88/147 47/144/148
f 48/150/149 52/94/150 53/76/151 49/80/152
f 52/120/153 50/158/154 51/18/155 53/112/156
f 50/38/157 46/135/158 47/66/159 51/59/160
f 48/1/161 46/34/162 50/49/163 52/69/164
f 54/28/165 55/9/166 57/35/167 56/143/168
f 56/6/169 57/7/170 61/57/171 60/60/172
f 60/12/173 61/63/174 59/42/175 58/99/176
f 58/44/177 59/153/178 55/154/179 54/114/180
f 56/141/181 60/36/182 58/22/183 54/24/184
g default
v -93.666887 115.382852 60.552828
v -93.666892 115.382852 -60.322159
v 0.938866 115.382857 60.552824
v 0.938861 115.382857 -60.322163
v -1.644212 120.224453 57.252503
v -91.083810 120.224449 57.252506
v -91.083815 120.224449 -58.717727
v -1.644217 120.224453 -58.717731
v -86.689651 119.268618 55.949346
v -86.689651 123.575240 55.949346
v -89.272737 119.268618 55.949346
v -89.272738 123.575240 55.949346
v -86.689656 119.268618 -57.888716
v -86.689656 123.575240 -57.888716
v -89.272742 119.268618 -57.888716
v -89.272743 123.575240 -57.888716
v -6.038368 119.268621 55.949343
v -6.038368 123.575241 55.949343
v -3.455281 119.268621 55.949342
v -3.455281 123.575241 55.949342
v -6.038373 119.268621 -57.888731
v -6.038373 123.575241 -57.888731
v -3.455286 119.268621 -57.888731
v -3.455286 123.575241 -57.888731
v -66.134745 119.268619 55.949345
v -66.134745 123.575241 55.949345
v -68.717834 119.268619 55.949345
v -68.717834 123.575241 55.949345
v -66.134750 119.268619 -57.888717
v -66.134750 123.575241 -57.888717
v -68.717839 119.268619 -57.888717
v -68.717839 123.575241 -57.888717
v -26.593275 119.268620 55.949343
v -26.593275 123.575240 55.949343
v -24.010184 119.268620 55.949343
v -24.010184 123.575240 55.949343
v -26.593280 119.268620 -57.888730
v -26.593280 123.575240 -57.888730
v -24.010189 119.268620 -57.888730
v -24.010189 123.575240 -57.888730
v -45.680262 119.268620 55.949344
v -45.680263 123.575242 55.949344
v -48.263351 119.268619 55.949344
v -48.263352 123.575242 55.949344
v -45.680267 119.268620 -57.888718
v -45.680268 123.575242 -57.888718
v -48.263356 119.268619 -57.888718
v -48.263356 123.575242 -57.888718
vt 0.377272 0.946403
vt 0.377272 0.951641
vt 0.309376 0.989409
vt 0.743363 0.010591
vt 0.378008 0.901428
vt 0.966636 0.815280
vt 0.128862 0.919856
vt 0.965251 0.254725
vt 0.374866 0.906667
vt 0.534501 0.853874
vt 0.966636 0.676807
vt 0.128862 0.941037
vt 0.961397 0.974934
vt 0.309376 0.850936
vt 0.281911 0.850936
vt 0.917650 0.254725
vt 0.905865 0.934550
vt 0.944070 0.254725
vt 0.938831 0.254725
vt 0.918853 0.149064
vt 0.467737 0.847210
vt 0.470880 0.985683
vt 0.285053 0.989409
vt 0.374866 0.875009
vt 0.528612 0.965811
vt 0.306234 0.850936
vt 0.940216 0.815280
vt 0.694987 0.931376
vt 0.911760 0.258740
vt 0.735225 0.401758
vt 0.378008 0.906667
vt 0.374866 0.880247
vt 0.961397 0.836461
vt 0.306234 0.989409
vt 0.852158 0.151657
vt 0.128862 0.914617
vt 0.501541 0.857016
vt 0.871531 0.908130
vt 0.918853 0.010591
vt 0.961397 0.676807
vt 0.985721 0.836461
vt 0.281911 0.989409
vt 0.125720 0.919856
vt 0.940216 0.517153
vt 0.850303 0.254725
vt 0.380414 0.946403
vt 0.944070 0.393198
vt 0.380414 0.951641
vt 0.442908 0.930497
vt 0.940216 0.974934
vt 0.961397 0.815280
vt 0.985721 0.974934
vt 0.743363 0.151657
vt 0.940216 0.676807
vt 0.913615 0.010591
vt 0.905865 0.929311
vt 0.125720 0.941037
vt 0.971693 0.149064
vt 0.125720 0.946276
vt 0.198002 0.926936
vt 0.850303 0.401758
vt 0.934978 0.676807
vt 0.966636 0.655626
vt 0.966636 0.517153
vt 0.439766 0.930497
vt 0.940216 0.836461
vt 0.467737 0.985683
vt 0.940035 0.010591
vt 0.759158 0.920222
vt 0.971693 0.010591
vt 0.871531 0.761097
vt 0.762300 0.920222
vt 0.934978 0.517153
vt 0.940035 0.149064
vt 0.735225 0.254725
vt 0.759158 0.925460
vt 0.902723 0.934550
vt 0.201144 0.921698
vt 0.201144 0.926936
vt 0.374866 0.901428
vt 0.940216 0.655626
vt 0.865641 0.906178
vt 0.988863 0.836461
vt 0.852158 0.010591
vt 0.507431 0.853874
vt 0.938831 0.393198
vt 0.934978 0.836461
vt 0.913615 0.149064
vt 0.439766 0.925258
vt 0.507431 0.968953
vt 0.198002 0.921698
vt 0.378008 0.875009
vt 0.934978 0.815280
vt 0.961397 0.517153
vt 0.970489 0.393198
vt 0.961397 0.655626
vt 0.964539 0.836461
vt 0.911760 0.399806
vt 0.965251 0.393198
vt 0.988863 0.974934
vt 0.966454 0.149064
vt 0.694987 0.926137
vt 0.865641 0.765112
vt 0.902723 0.929311
vt 0.934978 0.974934
vt 0.528612 0.857016
vt 0.945273 0.149064
vt 0.691845 0.931376
vt 0.934978 0.655626
vt 0.125720 0.914617
vt 0.442908 0.925258
vt 0.970489 0.254725
vt 0.128862 0.946276
vt 0.534501 0.968953
vt 0.501541 0.965811
vt 0.964539 0.974934
vt 0.378008 0.880247
vt 0.945273 0.010591
vt 0.470880 0.847210
vt 0.285053 0.850936
vt 0.917650 0.401758
vt 0.966454 0.010591
vt 0.762300 0.925460
vt 0.691845 0.926137
vn 0.000000 -1.000000 -0.000000
vn 0.000000 -1.000000 -0.000000
vn 0.000000 -1.000000 -0.000000
vn 0.000000 -1.000000 -0.000000
vn -0.000000 1.000000 0.000000
vn -0.000000 1.000000 0.000000
vn -0.000000 1.000000 0.000000
vn -0.000000 1.000000 0.000000
vn -0.000000 0.314563 -0.949237
vn -0.000000 0.314563 -0.949237
vn -0.000000 0.314563 -0.949237
vn -0.000000 0.314563 -0.949237
vn 0.000000 0.563247 0.826288
vn 0.000000 0.563247 0.826288
vn 0.000000 0.563247 0.826288
vn 0.000000 0.563247 0.826288
vn 0.882285 0.470715 -0.000000
vn 0.882285 0.470715 -0.000000
vn 0.882285 0.470715 -0.000000
vn 0.882285 0.470715 -0.000000
vn -0.882285 0.470715 0.000000
vn -0.882285 0.470715 0.000000
vn -0.882285 0.470715 0.000000
vn -0.882285 0.470715 0.000000
vn 0.000000 -0.000000 1.000000
vn 0.000000 -0.000000 1.000000
vn 0.000000 -0.000000 1.000000
vn 0.000000 -0.000000 1.000000
vn -1.000000 -0.000000 0.000000
vn -1.000000 -0.000000 0.000000
vn -1.000000 -0.000000 0.000000
vn -1.000000 -0.000000 0.000000
vn -0.000000 0.000000 -1.000000
vn -0.000000 0.000000 -1.000000
vn -0.000000 0.000000 -1.000000
vn -0.000000 0.000000 -1.000000
vn 1.000000 0.000000 -0.000000
vn 1.000000 0.000000 -0.000000
vn 1.000000 0.000000 -0.000000
vn 1.000000 0.000000 -0.000000
vn -0.000000 1.000000 0.000000
vn -0.000000 1.000000 0.000000
vn -0.000000 1.000000 0.000000
vn -0.000000 1.000000 0.000000
vn 0.000000 -0.000000 1.000000
vn 0.000000 -0.000000 1.000000
vn 0.000000 -0.000000 1.000000
vn 0.000000 -0.000000 1.000000
vn 1.000000 0.000000 -0.000000
vn 1.000000 0.000000 -0.000000
vn 1.000000 0.000000 -0.000000
vn 1.000000 0.000000 -0.000000
vn -0.000000 0.000000 -1.000000
vn -0.000000 0.000000 -1.000000
vn -0.000000 0.000000 -1.000000
vn -0.000000 0.000000 -1.000000
vn -1.000000 -0.000000 0.000000
vn -1.000000 -0.000000 0.000000
vn -1.000000 -0.000000 0.000000
vn -1.000000 -0.000000 0.000000
vn -0.000000 1.000000 0.000000
vn -0.000000 1.000000 0.000000
vn -0.000000 1.000000 0.000000
vn -0.000000 1.000000 0.000000
vn 0.000000 -0.000000 1.000000
vn 0.000000 -0.000000 1.000000
vn 0.000000 -0.000000 1.000000
vn 0.000000 -0.000000 1.000000
vn -1.000000 -0.000000 0.000000
vn -1.000000 -0.000000 0.000000
vn -1.000000 -0.000000 0.000000
vn -1.000000 -0.000000 0.000000
vn -0.000000 0.000000 -1.000000
vn -0.000000 0.000000 -1.000000
vn -0.000000 0.000000 -1.000000
vn -0.000000 0.000000 -1.000000
vn 1.000000 0.000000 -0.000000
vn 1.000000 0.000000 -0.000000
vn 1.000000 0.000000 -0.000000
vn 1.000000 0.000000 -0.000000
vn -0.000000 1.000000 0.000000
vn -0.000000 1.000000 0.000000
vn -0.000000 1.000000 0.000000
vn -0.000000 1.000000 0.000000
vn 0.000000 -0.000000 1.000000
vn 0.000000 -0.000000 1.000000
vn 0.000000 -0.000000 1.000000
vn 0.000000 -0.000000 1.000000
vn 1.000000 0.000000 -0.000000
vn 1.000000 0.000000 -0.000000
vn 1.000000 0.000000 -0.000000
vn 1.000000 0.000000 -0.000000
vn -0.000000 0.000000 -1.000000
vn -0.000000 0.000000 -1.000000
vn -0.000000 0.000000 -1.000000
vn -0.000000 0.000000 -1.000000
vn -1.000000 -0.000000 0.000000
vn -1.000000 -0.000000 0.000000
vn -1.000000 -0.000000 0.000000
vn -1.000000 -0.000000 0.000000
vn -0.000000 1.000000 0.000000
vn -0.000000 1.000000 0.000000
vn -0.000000 1.000000 0.000000
vn -0.000000 1.000000 0.000000
vn 0.000000 -0.000000 1.000000
vn 0.000000 -0.000000 1.000000
vn 0.000000 -0.000000 1.000000
vn 0.000000 -0.000000 1.000000
vn -1.000000 -0.000000 0.000000
vn -1.000000 -0.000000 0.000000
vn -1.000000 -0.000000 0.000000
vn -1.000000 -0.000000 0.000000
vn -0.000000 0.000000 -1.000000
vn -0.000000 0.000000 -1.000000
vn -0.000000 0.000000 -1.000000
vn -0.000000 0.000000 -1.000000
vn 1.000000 0.000000 -0.000000
vn 1.000000 0.000000 -0.000000
vn 1.000000 0.000000 -0.000000
vn 1.000000 0.000000 -0.000000
vn -0.000000 1.000000 0.000000
vn -0.000000 1.000000 0.000000
vn -0.000000 1.000000 0.000000
vn -0.000000 1.000000 0.000000
s off
g Dumpster Dumpster_T
usemtl DumpsterSG
f 65/236/185 64/191/186 62/222/187 63/206/188
f 69/165/189 68/245/190 67/196/191 66/214/192
f 63/275/193 68/186/194 69/267/195 65/171/196
f 64/246/197 66/198/198 67/276/199 62/251/200
f 65/199/201 69/243/202 66/264/203 64/232/204
f 62/177/205 67/190/206 68/259/207 63/282/208
f 70/274/209 71/173/210 73/218/211 72/220/212
f 72/262/213 73/219/214 77/231/215 76/283/216
f 76/163/217 77/162/218 75/207/219 74/209/220
f 74/229/221 75/279/222 71/268/223 70/235/224
f 77/175/225 73/164/226 71/195/227 75/187/228
f 78/226/229 80/210/230 81/272/231 79/250/232
f 80/247/233 84/180/234 85/179/235 81/208/236
f 84/240/237 82/221/238 83/252/239 85/239/240
f 82/216/241 78/249/242 79/181/243 83/200/244
f 85/182/245 83/280/246 79/183/247 81/228/248
f 86/189/249 87/263/250 89/285/251 88/269/252
f 88/212/253 89/167/254 93/172/255 92/201/256
f 92/238/257 93/265/258 91/217/259 90/178/260
f 90/248/261 91/227/262 87/211/263 86/266/264
f 93/281/265 89/184/266 87/203/267 91/176/268
f 94/193/269 96/278/270 97/253/271 95/185/272
f 96/254/273 100/223/274 101/215/275 97/188/276
f 100/192/277 98/170/278 99/241/279 101/166/280
f 98/234/281 94/270/282 95/242/283 99/205/284
f 101/194/285 99/258/286 95/277/287 97/174/288
f 102/168/289 103/197/290 105/271/291 104/204/292
f 104/257/293 105/224/294 109/225/295 108/255/296
f 108/237/297 109/230/298 107/233/299 106/284/300
f 106/169/301 107/273/302 103/256/303 102/260/304
f 109/244/305 105/261/306 103/213/307 107/202/308
