# This file uses centimeters as units for non-parametric coordinates.

mtllib box3.mtl
g default
v -86.066254 -0.506818 54.256009
v -86.066254 145.487793 54.255985
v -86.066254 -0.506834 -45.295589
v -86.066254 145.487777 -45.295613
v 86.066254 -0.506818 54.256009
v 86.066254 145.487793 54.255985
v 86.066254 -0.506834 -45.295589
v 86.066254 145.487777 -45.295613
vt 0.054633 0.999753
vt 0.211054 0.999753
vt 0.303153 0.849173
vt 0.303153 0.781494
vt 0.303153 0.999753
vt 0.303153 0.786578
vt 0.054633 0.781494
vt 0.032689 0.786578
vt 0.032689 0.935406
vt 0.303153 0.998001
vt 0.211054 0.999753
vt 0.032689 0.999753
vt 0.054633 0.999753
vt 0.032689 0.999753
vt 0.211054 0.781494
vt 0.032689 0.998001
vt 0.054633 0.781494
vt 0.303154 0.935406
vt 0.032689 0.781494
vt 0.032689 0.781494
vt 0.303153 0.999753
vt 0.032689 0.849173
vt 0.303153 0.781494
vt 0.211054 0.781494
vn -1.000000 0.000000 -0.000000
vn -1.000000 0.000000 -0.000000
vn -1.000000 0.000000 -0.000000
vn -1.000000 0.000000 -0.000000
vn 0.000000 -0.000000 -1.000000
vn 0.000000 -0.000000 -1.000000
vn 0.000000 -0.000000 -1.000000
vn 0.000000 -0.000000 -1.000000
vn 1.000000 0.000000 0.000000
vn 1.000000 0.000000 0.000000
vn 1.000000 0.000000 0.000000
vn 1.000000 0.000000 0.000000
vn 0.000000 0.000000 1.000000
vn 0.000000 0.000000 1.000000
vn 0.000000 0.000000 1.000000
vn 0.000000 0.000000 1.000000
vn 0.000000 -1.000000 0.000000
vn 0.000000 -1.000000 0.000000
vn 0.000000 -1.000000 0.000000
vn 0.000000 -1.000000 0.000000
vn 0.000000 1.000000 -0.000000
vn 0.000000 1.000000 -0.000000
vn 0.000000 1.000000 -0.000000
vn 0.000000 1.000000 -0.000000
s off
g Boxs_007
usemtl Boxs_001SG
f 1/15/1 2/11/2 4/1/3 3/7/4
f 3/23/5 4/5/6 8/12/7 7/20/8
f 7/17/9 8/13/10 6/2/11 5/24/12
f 5/19/13 6/14/14 2/21/15 1/4/16
f 3/18/17 7/9/18 5/8/19 1/6/20
f 8/16/21 4/10/22 2/3/23 6/22/24
