# This file uses centimeters as units for non-parametric coordinates.

mtllib box4.mtl
g default
v -97.853824 -0.443853 58.255770
v -97.853824 170.582624 58.255783
v -97.853824 -0.443845 -53.957765
v -97.853824 170.582632 -53.957752
v 80.405060 -0.443853 58.255770
v 80.405060 170.582624 58.255783
v 80.405060 -0.443845 -53.957765
v 80.405060 170.582632 -53.957752
vt 0.655410 0.390488
vt 0.652900 0.676305
vt 0.339798 0.653934
vt 0.339798 0.390488
vt 0.339798 0.390488
vt 0.652900 0.390488
vt 0.652900 0.466404
vt 0.652901 0.549565
vt 0.458313 0.390488
vt 0.655410 0.390488
vt 0.652900 0.653934
vt 0.339798 0.676305
vt 0.652900 0.390488
vt 0.655410 0.676305
vt 0.458313 0.676305
vt 0.655410 0.676305
vt 0.339798 0.466404
vt 0.458313 0.390488
vt 0.652900 0.676305
vt 0.339798 0.676305
vt 0.652900 0.362035
vt 0.339798 0.549565
vt 0.458313 0.676305
vt 0.339798 0.362035
vn -1.000000 0.000000 0.000000
vn -1.000000 0.000000 0.000000
vn -1.000000 0.000000 0.000000
vn -1.000000 0.000000 0.000000
vn 0.000000 0.000000 -1.000000
vn 0.000000 0.000000 -1.000000
vn 0.000000 0.000000 -1.000000
vn 0.000000 0.000000 -1.000000
vn 1.000000 0.000000 0.000000
vn 1.000000 0.000000 0.000000
vn 1.000000 0.000000 0.000000
vn 1.000000 0.000000 0.000000
vn 0.000000 -0.000000 1.000000
vn 0.000000 -0.000000 1.000000
vn 0.000000 -0.000000 1.000000
vn 0.000000 -0.000000 1.000000
vn 0.000000 -1.000000 -0.000000
vn 0.000000 -1.000000 -0.000000
vn 0.000000 -1.000000 -0.000000
vn 0.000000 -1.000000 -0.000000
vn 0.000000 1.000000 0.000000
vn 0.000000 1.000000 0.000000
vn 0.000000 1.000000 0.000000
vn 0.000000 1.000000 0.000000
s off
g Boxs_004
usemtl Boxs_001SG
f 1/1/1 2/16/2 4/15/3 3/18/4
f 3/6/5 4/2/6 8/20/7 7/5/8
f 7/9/9 8/23/10 6/14/11 5/10/12
f 5/4/13 6/12/14 2/19/15 1/13/16
f 3/8/17 7/22/18 5/24/19 1/21/20
f 8/3/21 4/11/22 2/7/23 6/17/24
