# This file uses centimeters as units for non-parametric coordinates.

mtllib box9.mtl
g default
v -98.992940 1.385546 32.080029
v -98.992940 130.631445 32.080008
v -98.992940 1.385533 -49.932221
v -98.992940 130.631432 -49.932242
v 98.992947 1.385546 32.080029
v 98.992947 130.631445 32.080008
v 98.992947 1.385533 -49.932221
v 98.992947 130.631432 -49.932242
vt 0.664269 0.508786
vt 0.990505 0.491937
vt 0.987996 0.491937
vt 0.664269 0.491937
vt 0.987996 0.693009
vt 0.990505 0.491937
vt 0.856407 0.693009
vt 0.987996 0.508786
vt 0.664269 0.693009
vt 0.990506 0.693009
vt 0.664269 0.491937
vt 0.856407 0.491937
vt 0.664269 0.636375
vt 0.987996 0.394785
vt 0.664269 0.522373
vt 0.987996 0.693009
vt 0.856407 0.693009
vt 0.856407 0.491937
vt 0.987996 0.522373
vt 0.987996 0.491937
vt 0.987996 0.636375
vt 0.990505 0.693009
vt 0.664269 0.693009
vt 0.664269 0.394785
vn -1.000000 0.000000 -0.000000
vn -1.000000 0.000000 -0.000000
vn -1.000000 0.000000 -0.000000
vn -1.000000 0.000000 -0.000000
vn 0.000000 -0.000000 -1.000000
vn 0.000000 -0.000000 -1.000000
vn 0.000000 -0.000000 -1.000000
vn 0.000000 -0.000000 -1.000000
vn 1.000000 0.000000 0.000000
vn 1.000000 0.000000 0.000000
vn 1.000000 0.000000 0.000000
vn 1.000000 0.000000 0.000000
vn 0.000000 0.000000 1.000000
vn 0.000000 0.000000 1.000000
vn 0.000000 0.000000 1.000000
vn 0.000000 0.000000 1.000000
vn 0.000000 -1.000000 0.000000
vn 0.000000 -1.000000 0.000000
vn 0.000000 -1.000000 0.000000
vn 0.000000 -1.000000 0.000000
vn 0.000000 1.000000 -0.000000
vn 0.000000 1.000000 -0.000000
vn 0.000000 1.000000 -0.000000
vn 0.000000 1.000000 -0.000000
s off
g Boxs_005
usemtl Boxs_001SG
f 1/6/1 2/10/2 4/7/3 3/18/4
f 3/20/5 4/16/6 8/23/7 7/11/8
f 7/12/9 8/17/10 6/22/11 5/2/12
f 5/4/13 6/9/14 2/5/15 1/3/16
f 3/19/17 7/15/18 5/24/19 1/14/20
f 8/13/21 4/21/22 2/8/23 6/1/24
