# This file uses centimeters as units for non-parametric coordinates.

mtllib fridge2.mtl
g default
v 78.221057 0.609207 45.220401
v 78.221056 28.343004 45.220401
v -78.221025 0.609200 45.220408
v -78.221026 28.342997 45.220408
v 78.221053 0.609207 -45.220411
v 78.221052 28.343004 -45.220411
v -78.221028 0.609200 -45.220404
v -78.221030 28.342997 -45.220404
v 82.422802 28.343004 50.467035
v -82.422748 28.342997 50.467042
v -82.422752 28.342997 -50.467029
v 82.422798 28.343004 -50.467036
v 76.585019 100.390628 44.629249
v -76.584977 100.390621 44.629255
v -76.584981 100.390621 -44.629249
v 76.585015 100.390628 -44.629255
v 82.422799 100.390628 50.467035
v -82.422751 100.390621 50.467042
v -82.422755 100.390621 -50.467029
v 82.422795 100.390628 -50.467036
v 76.585020 73.267170 44.629249
v -76.584976 73.267164 44.629255
v -76.584979 73.267164 -44.629249
v 76.585016 73.267170 -44.629255
v 73.898071 99.322125 43.063530
v -73.898297 99.322118 43.063537
v -73.898301 99.322118 -43.063542
v 73.898067 99.322125 -43.063548
v 84.319765 99.322125 51.628610
v -84.319990 99.322118 51.628617
v -84.319995 99.322118 -51.628610
v 84.319760 99.322125 -51.628617
v 84.319765 106.737986 51.628610
v -84.319991 106.737979 51.628617
v -84.319995 106.737979 -51.628610
v 84.319760 106.737986 -51.628617
v 73.898071 106.737986 43.063530
v -73.898298 106.737979 43.063537
v -73.898302 106.737979 -43.063542
v 73.898067 106.737986 -43.063548
vt 0.840205 0.007795
vt 0.840205 0.338621
vt 0.931872 0.321756
vt 0.128639 0.352910
vt 0.226851 0.007287
vt 0.113440 0.285910
vt 0.113440 0.007287
vt 0.018325 0.370258
vt 0.032782 0.028646
vt 0.153896 0.887373
vt 0.210358 0.361826
vt 0.128639 0.331551
vt 0.007795 0.708242
vt 0.209297 0.331551
vt 0.226851 0.352910
vt 0.423043 0.684811
vt 0.083872 0.889746
vt 0.869613 0.361826
vt 0.113440 0.352910
vt 0.407453 0.361826
vt 0.777947 0.675787
vt 0.225949 0.361826
vt 0.225949 0.675787
vt 0.128639 0.091841
vt 0.854023 0.361826
vt 0.225949 0.893940
vt 0.128639 0.028646
vt 0.128639 0.285910
vt 0.128639 0.268356
vt 0.099462 0.708242
vt 0.128639 0.352910
vt 0.854023 0.675787
vt 0.032782 0.331551
vt 0.113440 0.268356
vt 0.924047 0.684811
vt 0.153896 0.708242
vt 0.128639 0.074287
vt 0.128639 0.007287
vt 0.113440 0.331551
vt 0.128639 0.331551
vt 0.370540 0.691377
vt 0.007795 0.889746
vt 0.015228 0.007287
vt 0.423043 0.887373
vt 0.015228 0.352910
vt 0.209297 0.028646
vt 0.113440 0.285910
vt 0.762356 0.361826
vt 0.423043 0.669220
vt 0.617765 0.708242
vt 0.113440 0.074287
vt 0.199829 0.684219
vt 0.226851 0.007287
vt 0.855796 0.321756
vt 0.099462 0.887373
vt 0.225949 0.691377
vt 0.869613 0.992205
vt 0.695614 0.007795
vt 0.032782 0.331551
vt 0.695614 0.338621
vt 0.869613 0.684811
vt 0.777947 0.872881
vt 0.128639 0.028646
vt 0.672199 0.708242
vt 0.113440 0.028646
vt 0.113440 0.331551
vt 0.854023 0.872881
vt 0.113440 0.091841
vt 0.567634 0.887373
vt 0.924047 0.992205
vt 0.924047 0.669220
vt 0.209297 0.028646
vt 0.018325 0.684219
vt 0.007795 0.692652
vt 0.210358 0.692652
vt 0.931872 0.007795
vt 0.083872 0.708242
vt 0.128639 0.007287
vt 0.113440 0.007287
vt 0.128639 0.268356
vt 0.113440 0.352910
vt 0.113440 0.268356
vt 0.777947 0.361826
vt 0.762356 0.692652
vt 0.226851 0.352910
vt 0.672199 0.887373
vt 0.602175 0.361826
vt 0.128639 0.074287
vt 0.777947 0.691377
vt 0.370540 0.893940
vt 0.854023 0.691377
vt 0.869613 0.669220
vt 0.423043 0.361826
vt 0.015228 0.352910
vt 0.128639 0.285910
vt 0.032782 0.028646
vt 0.113440 0.074287
vt 0.199829 0.370258
vt 0.617765 0.887373
vt 0.007795 0.361826
vt 0.128639 0.091841
vt 0.209297 0.331551
vt 0.617765 0.692652
vt 0.113440 0.091841
vt 0.015228 0.007287
vt 0.617765 0.361826
vt 0.924047 0.361826
vt 0.602175 0.669220
vt 0.407453 0.675787
vt 0.113440 0.028646
vt 0.855796 0.007795
vt 0.567634 0.684811
vn 0.000000 -0.000000 1.000000
vn 0.000000 -0.000000 1.000000
vn 0.000000 -0.000000 1.000000
vn 0.000000 -0.000000 1.000000
vn -1.000000 -0.000000 0.000000
vn -1.000000 -0.000000 0.000000
vn -1.000000 -0.000000 0.000000
vn -1.000000 -0.000000 0.000000
vn -0.000000 0.000000 -1.000000
vn -0.000000 0.000000 -1.000000
vn -0.000000 0.000000 -1.000000
vn -0.000000 0.000000 -1.000000
vn 1.000000 0.000000 -0.000000
vn 1.000000 0.000000 -0.000000
vn 1.000000 0.000000 -0.000000
vn 1.000000 0.000000 -0.000000
vn 0.000000 -1.000000 -0.000000
vn 0.000000 -1.000000 -0.000000
vn 0.000000 -1.000000 -0.000000
vn 0.000000 -1.000000 -0.000000
vn 0.000000 -1.000000 0.000001
vn 0.000000 -1.000000 0.000001
vn 0.000000 -1.000000 0.000001
vn 0.000000 -1.000000 0.000001
vn -0.000000 0.000000 -1.000000
vn -0.000000 0.000000 -1.000000
vn -0.000000 0.000000 -1.000000
vn -0.000000 0.000000 -1.000000
vn 0.000000 -1.000000 -0.000000
vn 0.000000 -1.000000 -0.000000
vn 0.000000 -1.000000 -0.000000
vn 0.000000 -1.000000 -0.000000
vn 0.000000 -1.000000 -0.000000
vn 0.000000 -1.000000 -0.000000
vn 0.000000 -1.000000 -0.000000
vn 0.000000 -1.000000 -0.000000
vn 0.000000 -1.000000 -0.000000
vn 0.000000 -1.000000 -0.000000
vn 0.000000 -1.000000 -0.000000
vn 0.000000 -1.000000 -0.000000
vn 0.000000 -0.000000 1.000000
vn 0.000000 -0.000000 1.000000
vn 0.000000 -0.000000 1.000000
vn 0.000000 -0.000000 1.000000
vn 0.000000 -0.000000 1.000000
vn 0.000000 -0.000000 1.000000
vn 0.000000 -0.000000 1.000000
vn 0.000000 -0.000000 1.000000
vn 1.000000 0.000000 -0.000000
vn 1.000000 0.000000 -0.000000
vn 1.000000 0.000000 -0.000000
vn 1.000000 0.000000 -0.000000
vn -1.000000 -0.000000 0.000000
vn -1.000000 -0.000000 0.000000
vn -1.000000 -0.000000 0.000000
vn -1.000000 -0.000000 0.000000
vn -0.000000 1.000000 0.000000
vn -0.000000 1.000000 0.000000
vn -0.000000 1.000000 0.000000
vn -0.000000 1.000000 0.000000
vn -0.000000 0.000000 -1.000000
vn -0.000000 0.000000 -1.000000
vn -0.000000 0.000000 -1.000000
vn -0.000000 0.000000 -1.000000
vn -1.000000 -0.000000 0.000000
vn -1.000000 -0.000000 0.000000
vn -1.000000 -0.000000 0.000000
vn -1.000000 -0.000000 0.000000
vn 1.000000 0.000000 -0.000000
vn 1.000000 0.000000 -0.000000
vn 1.000000 0.000000 -0.000000
vn 1.000000 0.000000 -0.000000
vn 0.000000 -1.000000 0.000000
vn 0.000000 -1.000000 0.000000
vn 0.000000 -1.000000 0.000000
vn 0.000000 -1.000000 0.000000
vn 0.000000 -1.000000 -0.000000
vn 0.000000 -1.000000 -0.000000
vn 0.000000 -1.000000 -0.000000
vn 0.000000 -1.000000 -0.000000
vn 0.000000 -1.000000 -0.000000
vn 0.000000 -1.000000 -0.000000
vn 0.000000 -1.000000 -0.000000
vn 0.000000 -1.000000 -0.000000
vn 0.000000 -1.000000 -0.000000
vn 0.000000 -1.000000 -0.000000
vn 0.000000 -1.000000 -0.000000
vn 0.000000 -1.000000 -0.000000
vn -0.000000 1.000000 0.000000
vn -0.000000 1.000000 0.000000
vn -0.000000 1.000000 0.000000
vn -0.000000 1.000000 0.000000
vn -0.000000 1.000000 0.000000
vn -0.000000 1.000000 0.000000
vn -0.000000 1.000000 0.000000
vn -0.000000 1.000000 0.000000
vn -0.000000 1.000000 0.000000
vn -0.000000 1.000000 0.000000
vn -0.000000 1.000000 0.000000
vn -0.000000 1.000000 0.000000
vn -0.000000 1.000000 0.000000
vn -0.000000 1.000000 0.000000
vn -0.000000 1.000000 0.000000
vn -0.000000 1.000000 0.000000
vn 0.000000 -0.000000 1.000000
vn 0.000000 -0.000000 1.000000
vn 0.000000 -0.000000 1.000000
vn 0.000000 -0.000000 1.000000
vn -0.000000 0.000000 -1.000000
vn -0.000000 0.000000 -1.000000
vn -0.000000 0.000000 -1.000000
vn -0.000000 0.000000 -1.000000
vn -0.000000 0.000000 -1.000000
vn -0.000000 0.000000 -1.000000
vn -0.000000 0.000000 -1.000000
vn -0.000000 0.000000 -1.000000
vn 0.000000 -0.000000 1.000000
vn 0.000000 -0.000000 1.000000
vn 0.000000 -0.000000 1.000000
vn 0.000000 -0.000000 1.000000
vn -1.000000 -0.000000 0.000000
vn -1.000000 -0.000000 0.000000
vn -1.000000 -0.000000 0.000000
vn -1.000000 -0.000000 0.000000
vn 1.000000 0.000000 -0.000000
vn 1.000000 0.000000 -0.000000
vn 1.000000 0.000000 -0.000000
vn 1.000000 0.000000 -0.000000
vn 1.000000 0.000000 -0.000000
vn 1.000000 0.000000 -0.000000
vn 1.000000 0.000000 -0.000000
vn 1.000000 0.000000 -0.000000
vn -1.000000 -0.000000 0.000000
vn -1.000000 -0.000000 0.000000
vn -1.000000 -0.000000 0.000000
vn -1.000000 -0.000000 0.000000
s off
g Fridge
usemtl FridgeSG
f 1/54/1 2/3/2 4/76/3 3/111/4
f 3/42/5 4/17/6 8/77/7 7/13/8
f 7/83/9 8/25/10 6/32/11 5/21/12
f 5/89/13 6/91/14 2/67/15 1/62/16
f 3/20/17 7/22/18 5/23/19 1/109/20
f 6/73/21 8/8/22 11/100/23 12/74/24
f 12/103/25 11/106/26 19/48/27 20/84/28
f 4/98/29 2/52/30 9/75/31 10/11/32
f 2/52/33 6/73/34 12/74/35 9/75/36
f 8/8/37 4/98/38 10/11/39 11/100/40
f 16/18/41 15/92/42 23/71/43 24/107/44
f 10/58/45 9/60/46 17/2/47 18/1/48
f 9/44/49 12/16/50 20/112/51 17/69/52
f 11/56/53 10/26/54 18/90/55 19/41/56
f 23/93/57 22/87/58 21/108/59 24/49/60
f 14/57/61 13/61/62 21/35/63 22/70/64
f 13/86/65 16/64/66 24/50/67 21/99/68
f 15/36/69 14/10/70 22/55/71 23/30/72
f 25/9/73 29/105/74 30/45/75 26/59/76
f 26/59/77 30/45/78 31/85/79 27/14/80
f 27/14/81 31/85/82 32/5/83 28/72/84
f 28/72/85 32/5/86 29/105/87 25/9/88
f 37/96/89 38/33/90 34/94/91 33/43/92
f 38/33/93 39/102/94 35/15/95 34/94/96
f 39/102/97 40/46/98 36/53/99 35/15/100
f 40/46/101 37/96/102 33/43/103 36/53/104
f 27/110/105 28/39/106 40/12/107 39/27/108
f 25/66/109 26/65/110 38/63/111 37/40/112
f 32/81/113 31/7/114 35/38/115 36/4/116
f 30/79/117 29/19/118 33/31/119 34/78/120
f 28/68/121 25/34/122 37/29/123 40/101/124
f 26/82/125 27/104/126 39/24/127 38/80/128
f 29/47/129 32/97/130 36/88/131 33/95/132
f 31/51/133 30/6/134 34/28/135 35/37/136
g default
v 74.753228 102.596788 43.142798
v 74.753224 102.596788 -44.715223
v -2.989993 102.596785 43.142801
v -2.990002 102.596785 -44.715219
v 1.394162 102.596785 -40.331056
v 70.369060 102.596788 -40.331059
v 70.369064 102.596788 38.758634
v 1.394170 102.596785 38.758637
v 1.394162 105.611685 -40.331056
v 70.369060 105.611688 -40.331059
v 70.369063 105.611688 38.758634
v 1.394170 105.611685 38.758637
v -2.990002 105.611685 -44.715219
v 74.753224 105.611689 -44.715223
v 74.753228 105.611689 43.142798
v -2.989994 105.611685 43.142801
v 1.394162 103.675978 -40.331056
v 70.369060 103.675981 -40.331059
v 70.369064 103.675981 38.758634
v 1.394170 103.675978 38.758637
vt 0.224956 0.112795
vt 0.236688 0.209112
vt 0.013325 0.297361
vt 0.236688 0.309092
vt 0.013325 0.201044
vt 1.000000 0.063945
vt 0.236688 0.309092
vt 0.026858 0.201044
vt 0.001594 0.309092
vt 0.001594 0.209112
vt 0.000000 0.063945
vt 0.236688 0.201044
vt 0.013325 0.112795
vt 0.015127 0.209112
vt 0.026858 0.209112
vt 0.224956 0.112795
vt 0.013325 0.209112
vt 1.000000 0.936055
vt 0.000000 0.936055
vt 0.224956 0.201044
vt 0.223155 0.201044
vt 0.013325 0.297361
vt 0.015127 0.201044
vt 0.211423 0.209112
vt 0.223155 0.209112
vt 0.211423 0.209112
vt 0.224956 0.297361
vt 0.223155 0.209112
vt 0.013325 0.112795
vt 0.236688 0.201044
vt 0.001594 0.101064
vt 0.000000 0.063945
vt 0.015127 0.209112
vt 0.224956 0.209112
vt 0.236688 0.101064
vt 0.001594 0.201044
vt 0.013325 0.209112
vt 0.236688 0.209112
vt 0.236688 0.101064
vt 0.013325 0.201044
vt 0.223155 0.201044
vt 0.211423 0.201044
vt 1.000000 0.063945
vt 0.211423 0.201044
vt 0.015127 0.201044
vt 0.026858 0.201044
vt 0.001594 0.209112
vt 0.224956 0.297361
vt 0.026858 0.209112
vt 0.001594 0.309092
vt 0.224956 0.209112
vt 0.000000 0.936055
vt 0.001594 0.101064
vt 1.000000 0.936055
vt 0.001594 0.201044
vt 0.224956 0.201044
vn -0.000000 1.000000 0.000000
vn -0.000000 1.000000 0.000000
vn -0.000000 1.000000 0.000000
vn -0.000000 1.000000 0.000000
vn 0.000000 -1.000000 0.000000
vn 0.000000 -1.000000 0.000000
vn 0.000000 -1.000000 0.000000
vn 0.000000 -1.000000 0.000000
vn 0.000000 -1.000000 -0.000000
vn 0.000000 -1.000000 -0.000000
vn 0.000000 -1.000000 -0.000000
vn 0.000000 -1.000000 -0.000000
vn 0.000000 -1.000000 -0.000000
vn 0.000000 -1.000000 -0.000000
vn 0.000000 -1.000000 -0.000000
vn 0.000000 -1.000000 -0.000000
vn 0.000000 -1.000000 -0.000000
vn 0.000000 -1.000000 -0.000000
vn 0.000000 -1.000000 -0.000000
vn 0.000000 -1.000000 -0.000000
vn -0.000000 1.000000 0.000000
vn -0.000000 1.000000 0.000000
vn -0.000000 1.000000 0.000000
vn -0.000000 1.000000 0.000000
vn -0.000000 1.000000 0.000000
vn -0.000000 1.000000 0.000000
vn -0.000000 1.000000 0.000000
vn -0.000000 1.000000 0.000000
vn -0.000000 1.000000 0.000000
vn -0.000000 1.000000 0.000000
vn -0.000000 1.000000 0.000000
vn -0.000000 1.000000 0.000000
vn 0.000000 -0.000000 1.000000
vn 0.000000 -0.000000 1.000000
vn 0.000000 -0.000000 1.000000
vn 0.000000 -0.000000 1.000000
vn -0.000000 0.000000 -1.000000
vn -0.000000 0.000000 -1.000000
vn -0.000000 0.000000 -1.000000
vn -0.000000 0.000000 -1.000000
vn -0.000000 0.000000 -1.000000
vn -0.000000 0.000000 -1.000000
vn -0.000000 0.000000 -1.000000
vn -0.000000 0.000000 -1.000000
vn 0.000000 -0.000000 1.000000
vn 0.000000 -0.000000 1.000000
vn 0.000000 -0.000000 1.000000
vn 0.000000 -0.000000 1.000000
vn -1.000000 -0.000000 0.000000
vn -1.000000 -0.000000 0.000000
vn -1.000000 -0.000000 0.000000
vn -1.000000 -0.000000 0.000000
vn 1.000000 0.000000 -0.000000
vn 1.000000 0.000000 -0.000000
vn 1.000000 0.000000 -0.000000
vn 1.000000 0.000000 -0.000000
vn 1.000000 0.000000 -0.000000
vn 1.000000 0.000000 -0.000000
vn 1.000000 0.000000 -0.000000
vn 1.000000 0.000000 -0.000000
vn -1.000000 -0.000000 0.000000
vn -1.000000 -0.000000 0.000000
vn -1.000000 -0.000000 0.000000
vn -1.000000 -0.000000 0.000000
vn -0.000000 1.000000 -0.000000
vn -0.000000 1.000000 -0.000000
vn -0.000000 1.000000 -0.000000
vn -0.000000 1.000000 -0.000000
vn 0.000000 -1.000000 -0.000000
vn 0.000000 -1.000000 -0.000000
vn 0.000000 -1.000000 -0.000000
vn 0.000000 -1.000000 -0.000000
s off
g Fridge Fridge_D_01
usemtl FridgeSG
f 50/113/137 54/151/138 53/119/139 49/139/140
f 46/128/141 45/160/142 44/116/143 42/147/144
f 47/141/145 46/128/146 42/147/147 41/143/148
f 48/134/149 47/141/150 41/143/151 43/121/152
f 45/160/153 48/134/154 43/121/155 44/116/156
f 51/125/157 55/165/158 54/151/159 50/113/160
f 52/115/161 56/162/162 55/165/163 51/125/164
f 49/139/165 53/119/166 56/162/167 52/115/168
f 41/157/169 55/126/170 56/137/171 43/153/172
f 44/133/173 53/140/174 54/145/175 42/135/176
f 48/154/177 52/138/178 51/161/179 47/158/180
f 46/120/181 50/127/182 49/136/183 45/156/184
f 43/167/185 56/159/186 53/114/187 44/142/188
f 42/124/189 54/150/190 55/122/191 41/148/192
f 45/132/193 49/163/194 52/129/195 48/152/196
f 47/117/197 51/149/198 50/146/199 46/168/200
usemtl Glass_001SG
f 52/164/201 51/123/202 50/155/203 49/166/204
f 60/131/205 57/130/206 58/118/207 59/144/208
g default
v 1.935616 100.255085 43.142801
v 1.935612 100.255085 -44.715219
v -75.807605 100.255082 43.142804
v -75.807614 100.255082 -44.715216
v -71.423450 100.255082 -40.331052
v -2.448551 100.255085 -40.331055
v -2.448548 100.255085 38.758637
v -71.423441 100.255082 38.758640
v -71.423450 103.269983 -40.331052
v -2.448552 103.269986 -40.331055
v -2.448548 103.269986 38.758637
v -71.423442 103.269983 38.758640
v -75.807614 103.269982 -44.715216
v 1.935612 103.269986 -44.715219
v 1.935616 103.269986 43.142801
v -75.807605 103.269982 43.142804
v -71.423450 101.334275 -40.331052
v -2.448551 101.334278 -40.331055
v -2.448548 101.334278 38.758637
v -71.423441 101.334275 38.758640
vt 0.224956 0.112795
vt 0.236688 0.209112
vt 0.013325 0.297361
vt 0.236688 0.309092
vt 0.013325 0.201044
vt 1.000000 0.063945
vt 0.236688 0.309092
vt 0.026858 0.201044
vt 0.001594 0.309092
vt 0.001594 0.209112
vt 0.000000 0.063945
vt 0.236688 0.201044
vt 0.013325 0.112795
vt 0.015127 0.209112
vt 0.026858 0.209112
vt 0.224956 0.112795
vt 0.013325 0.209112
vt 1.000000 0.936055
vt 0.000000 0.936055
vt 0.224956 0.201044
vt 0.223155 0.201044
vt 0.013325 0.297361
vt 0.015127 0.201044
vt 0.211423 0.209112
vt 0.223155 0.209112
vt 0.211423 0.209112
vt 0.224956 0.297361
vt 0.223155 0.209112
vt 0.013325 0.112795
vt 0.236688 0.201044
vt 0.001594 0.101064
vt 0.000000 0.063945
vt 0.015127 0.209112
vt 0.224956 0.209112
vt 0.236688 0.101064
vt 0.001594 0.201044
vt 0.013325 0.209112
vt 0.236688 0.209112
vt 0.236688 0.101064
vt 0.013325 0.201044
vt 0.223155 0.201044
vt 0.211423 0.201044
vt 1.000000 0.063945
vt 0.211423 0.201044
vt 0.015127 0.201044
vt 0.026858 0.201044
vt 0.001594 0.209112
vt 0.224956 0.297361
vt 0.026858 0.209112
vt 0.001594 0.309092
vt 0.224956 0.209112
vt 0.000000 0.936055
vt 0.001594 0.101064
vt 1.000000 0.936055
vt 0.001594 0.201044
vt 0.224956 0.201044
vn -0.000000 1.000000 0.000000
vn -0.000000 1.000000 0.000000
vn -0.000000 1.000000 0.000000
vn -0.000000 1.000000 0.000000
vn 0.000000 -1.000000 0.000000
vn 0.000000 -1.000000 0.000000
vn 0.000000 -1.000000 0.000000
vn 0.000000 -1.000000 0.000000
vn 0.000000 -1.000000 -0.000000
vn 0.000000 -1.000000 -0.000000
vn 0.000000 -1.000000 -0.000000
vn 0.000000 -1.000000 -0.000000
vn 0.000000 -1.000000 -0.000000
vn 0.000000 -1.000000 -0.000000
vn 0.000000 -1.000000 -0.000000
vn 0.000000 -1.000000 -0.000000
vn 0.000000 -1.000000 -0.000000
vn 0.000000 -1.000000 -0.000000
vn 0.000000 -1.000000 -0.000000
vn 0.000000 -1.000000 -0.000000
vn -0.000000 1.000000 0.000000
vn -0.000000 1.000000 0.000000
vn -0.000000 1.000000 0.000000
vn -0.000000 1.000000 0.000000
vn -0.000000 1.000000 0.000000
vn -0.000000 1.000000 0.000000
vn -0.000000 1.000000 0.000000
vn -0.000000 1.000000 0.000000
vn -0.000000 1.000000 0.000000
vn -0.000000 1.000000 0.000000
vn -0.000000 1.000000 0.000000
vn -0.000000 1.000000 0.000000
vn 0.000000 -0.000000 1.000000
vn 0.000000 -0.000000 1.000000
vn 0.000000 -0.000000 1.000000
vn 0.000000 -0.000000 1.000000
vn -0.000000 0.000000 -1.000000
vn -0.000000 0.000000 -1.000000
vn -0.000000 0.000000 -1.000000
vn -0.000000 0.000000 -1.000000
vn -0.000000 0.000000 -1.000000
vn -0.000000 0.000000 -1.000000
vn -0.000000 0.000000 -1.000000
vn -0.000000 0.000000 -1.000000
vn 0.000000 -0.000000 1.000000
vn 0.000000 -0.000000 1.000000
vn 0.000000 -0.000000 1.000000
vn 0.000000 -0.000000 1.000000
vn -1.000000 -0.000000 0.000000
vn -1.000000 -0.000000 0.000000
vn -1.000000 -0.000000 0.000000
vn -1.000000 -0.000000 0.000000
vn 1.000000 0.000000 -0.000000
vn 1.000000 0.000000 -0.000000
vn 1.000000 0.000000 -0.000000
vn 1.000000 0.000000 -0.000000
vn 1.000000 0.000000 -0.000000
vn 1.000000 0.000000 -0.000000
vn 1.000000 0.000000 -0.000000
vn 1.000000 0.000000 -0.000000
vn -1.000000 -0.000000 0.000000
vn -1.000000 -0.000000 0.000000
vn -1.000000 -0.000000 0.000000
vn -1.000000 -0.000000 0.000000
vn -0.000000 1.000000 -0.000000
vn -0.000000 1.000000 -0.000000
vn -0.000000 1.000000 -0.000000
vn -0.000000 1.000000 -0.000000
vn 0.000000 -1.000000 -0.000000
vn 0.000000 -1.000000 -0.000000
vn 0.000000 -1.000000 -0.000000
vn 0.000000 -1.000000 -0.000000
s off
g Fridge Fridge_D
usemtl FridgeSG
f 70/169/209 74/207/210 73/175/211 69/195/212
f 66/184/213 65/216/214 64/172/215 62/203/216
f 67/197/217 66/184/218 62/203/219 61/199/220
f 68/190/221 67/197/222 61/199/223 63/177/224
f 65/216/225 68/190/226 63/177/227 64/172/228
f 71/181/229 75/221/230 74/207/231 70/169/232
f 72/171/233 76/218/234 75/221/235 71/181/236
f 69/195/237 73/175/238 76/218/239 72/171/240
f 61/213/241 75/182/242 76/193/243 63/209/244
f 64/189/245 73/196/246 74/201/247 62/191/248
f 68/210/249 72/194/250 71/217/251 67/214/252
f 66/176/253 70/183/254 69/192/255 65/212/256
f 63/223/257 76/215/258 73/170/259 64/198/260
f 62/180/261 74/206/262 75/178/263 61/204/264
f 65/188/265 69/219/266 72/185/267 68/208/268
f 67/173/269 71/205/270 70/202/271 66/224/272
usemtl Glass_001SG
f 72/220/273 71/179/274 70/211/275 69/222/276
f 80/187/277 77/186/278 78/174/279 79/200/280
