# This file uses centimeters as units for non-parametric coordinates.

mtllib shelving.mtl
g default
v -118.772411 75.671969 -11.674945
v 118.772495 75.671969 -11.674945
v 118.772495 75.671976 32.247326
v -118.772411 75.671976 32.247326
v -118.772411 80.325147 -11.674946
v 118.772495 80.325147 -11.674946
v 118.772495 80.325154 32.247325
v -118.772411 80.325154 32.247325
v -118.772411 123.599722 -11.674953
v 118.772495 123.599722 -11.674953
v 118.772495 123.599729 32.247318
v -118.772411 123.599729 32.247318
v -118.772411 128.252907 -11.674954
v 118.772495 128.252907 -11.674954
v 118.772495 128.252915 32.247317
v -118.772411 128.252915 32.247317
v -118.772483 1.050122 -11.674907
v -118.772483 165.071710 -11.674934
v -118.772483 1.050121 -19.375121
v -118.772483 165.071709 -19.375148
v 118.772435 1.050122 -11.674907
v 118.772435 165.071710 -11.674934
v 118.772435 1.050121 -19.375121
v 118.772435 165.071709 -19.375148
v -118.772483 32.391607 -11.674913
v -118.772483 32.391605 -19.375126
v 118.772435 32.391605 -19.375126
v 118.772435 32.391607 -11.674913
v 118.772435 32.391616 43.409039
v 118.772435 1.050131 43.409044
v -118.772483 1.050131 43.409044
v -118.772483 32.391616 43.409039
v 118.630278 73.191312 33.067313
v 118.630278 80.896001 33.067312
v 118.630278 71.664415 -10.528573
v 118.630278 80.895994 -10.528574
v 120.122039 73.191312 33.067313
v 120.122039 80.896001 33.067312
v 120.122039 71.664415 -10.528573
v 120.122039 80.895994 -10.528574
v 118.630278 80.895993 -18.858642
v 118.630278 74.690694 -18.858641
v 120.122039 74.690694 -18.858641
v 120.122039 80.895993 -18.858642
v 120.122039 51.213722 -15.177872
v 118.630278 51.213722 -15.177872
v 120.122039 49.177400 -18.858637
v 118.630278 49.177400 -18.858637
v 118.630278 121.249053 33.067306
v 118.630278 128.953746 33.067304
v 118.630278 119.722160 -10.528580
v 118.630278 128.953739 -10.528582
v 120.122039 121.249053 33.067306
v 120.122039 128.953746 33.067304
v 120.122039 119.722160 -10.528580
v 120.122039 128.953739 -10.528582
v 118.630278 128.953738 -18.858650
v 118.630278 122.748435 -18.858649
v 120.122039 122.748435 -18.858649
v 120.122039 128.953738 -18.858650
v 120.122039 99.271463 -15.177880
v 118.630278 99.271463 -15.177880
v 120.122039 97.235138 -18.858645
v 118.630278 97.235138 -18.858645
v -118.630254 73.191315 33.067313
v -118.630254 80.896001 33.067312
v -118.630254 71.664415 -10.528570
v -118.630254 80.895994 -10.528571
v -120.122004 73.191315 33.067313
v -120.122004 80.896001 33.067312
v -120.122004 71.664415 -10.528570
v -120.122004 80.895994 -10.528571
v -118.630254 80.895993 -18.858639
v -118.630254 74.690694 -18.858638
v -120.122004 74.690694 -18.858638
v -120.122004 80.895993 -18.858639
v -120.122004 51.213722 -15.177869
v -118.630254 51.213722 -15.177869
v -120.122004 49.177400 -18.858634
v -118.630254 49.177400 -18.858634
v -118.630254 121.249053 33.067306
v -118.630254 128.953734 33.067304
v -118.630254 119.722154 -10.528577
v -118.630254 128.953727 -10.528579
v -120.122004 121.249053 33.067306
v -120.122004 128.953734 33.067304
v -120.122004 119.722154 -10.528577
v -120.122004 128.953727 -10.528579
v -118.630254 128.953726 -18.858647
v -118.630254 122.748432 -18.858646
v -120.122004 122.748432 -18.858646
v -120.122004 128.953726 -18.858647
v -120.122004 99.271460 -15.177877
v -118.630254 99.271460 -15.177877
v -120.122004 97.235136 -18.858642
v -118.630254 97.235136 -18.858642
vt 0.818709 0.345295
vt 0.820312 0.311349
vt 0.812500 0.163830
vt 0.795462 0.003542
vt 0.371667 1.000000
vt 0.641062 1.000000
vt 0.802546 0.996458
vt 0.926198 0.547672
vt 0.620861 0.439469
vt 0.620861 0.207362
vt 0.832372 0.024352
vt 0.950837 0.004994
vt 0.814103 0.411305
vt 0.813145 0.547672
vt 0.837000 0.107406
vt 0.814103 0.404950
vt 0.818709 0.243338
vt 0.009789 0.000000
vt 0.812500 0.404950
vt 0.802326 0.439469
vt 0.807098 0.436552
vt 0.837000 0.239432
vt 0.802327 0.439469
vt 0.820312 0.379969
vt 0.837000 0.213603
vt 0.620862 0.439469
vt 0.802326 0.239432
vt 0.773001 0.000000
vt 0.814103 0.163830
vt 0.812500 0.163830
vt 0.812500 0.443376
vt 0.807098 0.217688
vt 0.795462 0.996458
vt 0.614653 0.024352
vt 0.940635 0.689137
vt 0.812500 0.217509
vt 0.821679 0.115882
vt 0.837000 0.413640
vt 0.624275 0.217688
vt 0.621614 0.795342
vt 0.813145 0.348975
vt 0.624275 0.237056
vt 0.926198 0.348975
vt 0.802327 0.401044
vt 0.802326 0.201006
vt 0.862807 0.024352
vt 0.820312 0.379969
vt 0.818709 0.364648
vt 0.556568 1.000000
vt 0.556568 0.000000
vt 0.814103 0.417546
vt 0.814103 0.379969
vt 0.820313 0.163830
vt 0.818709 0.204913
vt 0.837000 0.107406
vt 0.818709 0.411305
vt 0.945887 0.688873
vt 0.818709 0.163830
vt 0.371667 1.000000
vt 0.820312 0.345295
vt 0.837000 0.239432
vt 0.820312 0.443376
vt 0.125000 0.500000
vt 0.837000 0.213603
vt 0.371667 0.000000
vt 0.807098 0.417184
vt 0.821679 0.115882
vt 0.814103 0.379969
vt 0.812500 0.345295
vt 0.821679 0.315919
vt 0.820313 0.163830
vt 0.814103 0.379969
vt 0.837000 0.307443
vt 0.820312 0.345295
vt 0.926198 0.547672
vt 0.620862 0.239432
vt 0.814103 0.443376
vt 0.818709 0.311349
vt 0.814103 0.364648
vt 0.125000 0.500000
vt 0.812500 0.345295
vt 0.814103 0.379969
vt 0.818709 0.417546
vt 0.620862 0.407399
vt 0.556568 1.000000
vt 0.940635 0.558133
vt 0.818709 0.379969
vt 0.620862 0.207362
vt 0.812500 0.443376
vt 0.814103 0.364648
vt 0.814103 0.311349
vt 0.812500 0.379969
vt 0.814103 0.443376
vt 0.802327 0.239432
vt 0.820312 0.319825
vt 0.820312 0.119788
vt 0.973080 0.004994
vt 0.813145 0.547672
vt 0.837000 0.107406
vt 0.821679 0.315919
vt 0.565217 0.003542
vt 0.933551 0.003542
vt 0.807098 0.237056
vt 0.818709 0.211268
vt 0.812500 0.243338
vt 0.818709 0.379969
vt 0.837000 0.307443
vt 0.371667 0.000000
vt 0.812500 0.364648
vt 0.820312 0.243338
vt 0.802327 0.201006
vt 0.802326 0.401044
vt 0.620862 0.239432
vt 0.837000 0.439469
vt 0.009789 1.000000
vt 0.972821 0.689137
vt 0.621614 0.157783
vt 0.624275 0.417184
vt 0.818709 0.379969
vt 0.820312 0.111312
vt 0.641062 0.000000
vt 0.375000 0.500000
vt 0.972821 0.003542
vt 0.814103 0.345295
vt 0.820312 0.211268
vt 0.973080 0.691167
vt 0.837000 0.107406
vt 0.802326 0.239432
vt 0.837000 0.413640
vt 0.558133 0.996458
vt 0.818709 0.443376
vt 0.802546 0.003542
vt 0.802327 0.239432
vt 0.814103 0.111312
vt 0.624275 0.217688
vt 0.820312 0.345295
vt 0.620861 0.207362
vt 0.812500 0.311349
vt 0.773001 1.000000
vt 0.820312 0.204913
vt 0.814103 0.345295
vt 0.624275 0.436552
vt 0.620862 0.239432
vt 0.813145 0.348975
vt 0.837000 0.439469
vt 0.820312 0.404950
vt 0.818709 0.119788
vt 0.802327 0.401044
vt 0.371667 0.000000
vt 0.814103 0.217509
vt 0.802326 0.201006
vt 0.620862 0.439469
vt 0.802326 0.401044
vt 0.802327 0.201006
vt 0.820312 0.163845
vt 0.978030 0.004188
vt 0.820312 0.217509
vt 0.556568 0.000000
vt 0.812500 0.163845
vt 0.812500 0.379969
vt 0.818709 0.443376
vt 0.820312 0.345295
vt 0.814103 0.119788
vt 0.933551 0.996458
vt 0.814103 0.163845
vt 0.818709 0.345295
vt 0.812500 0.345295
vt 0.371667 1.000000
vt 0.750250 0.157783
vt 0.972821 0.558133
vt 0.814103 0.243338
vt 0.837000 0.213603
vt 0.812500 0.204913
vt 0.807098 0.417184
vt 0.820312 0.163845
vt 0.821679 0.115882
vt 0.837000 0.413640
vt 0.620862 0.407399
vt 0.812500 0.417546
vt 0.814103 0.163830
vt 0.812500 0.163845
vt 0.820312 0.243338
vt 0.812500 0.379969
vt 0.820312 0.364648
vt 0.620861 0.407399
vt 0.837000 0.439469
vt 0.945887 0.135019
vt 0.814103 0.163845
vt 0.807098 0.217688
vt 0.818709 0.345295
vt 0.620861 0.207362
vt 0.609125 0.157783
vt 0.565217 0.996458
vt 0.750250 0.795342
vt 0.624275 0.237056
vt 0.620862 0.239432
vt 0.812500 0.119788
vt 0.820312 0.364648
vt 0.620862 0.439469
vt 0.807098 0.436552
vt 0.556568 1.000000
vt 0.556568 0.000000
vt 0.837000 0.213603
vt 0.818709 0.163845
vt 0.820312 0.411305
vt 0.568336 0.000000
vt 0.821679 0.115882
vt 0.950837 0.691167
vt 0.940635 0.003542
vt 0.821679 0.315919
vt 0.812500 0.411305
vt 0.837000 0.439469
vt 0.371667 0.000000
vt 0.620862 0.407399
vt 0.837000 0.307443
vt 0.814103 0.345295
vt 0.814103 0.243338
vt 0.832372 0.963247
vt 0.818709 0.163845
vt 0.812500 0.345295
vt 0.837000 0.239432
vt 0.818709 0.319825
vt 0.820312 0.379969
vt 0.371667 1.000000
vt 0.978030 0.135019
vt 0.812500 0.319825
vt 0.814103 0.345295
vt 0.812500 0.243338
vt 0.978030 0.688873
vt 0.568336 1.000000
vt 0.814103 0.211268
vt 0.926198 0.348975
vt 0.802326 0.439469
vt 0.818709 0.404950
vt 0.003542 0.003542
vt 0.558133 0.003542
vt 0.737761 0.157783
vt 0.820312 0.379969
vt 0.802327 0.439469
vt 0.821679 0.315919
vt 0.812500 0.211268
vt 0.556568 1.000000
vt 0.820312 0.417546
vt 0.862807 0.963247
vt 0.812500 0.111312
vt 0.837000 0.307443
vt 0.814103 0.204913
vt 0.818709 0.111312
vt 0.818709 0.345295
vt 0.609125 0.795342
vt 0.375000 0.500000
vt 0.624275 0.436552
vt 0.820312 0.443376
vt 0.614653 0.963247
vt 0.837000 0.239432
vt 0.818709 0.243338
vt 0.837000 0.413640
vt 0.003542 0.996458
vt 0.814103 0.319825
vt 0.807098 0.237056
vt 0.818709 0.217509
vt 0.556568 0.000000
vt 0.624275 0.417184
vt 0.945887 0.004188
vt 0.737761 0.795342
vt 0.818709 0.163830
vn 0.000000 -1.000000 0.000000
vn 0.000000 -1.000000 0.000000
vn 0.000000 -1.000000 0.000000
vn 0.000000 -1.000000 0.000000
vn 0.000000 1.000000 -0.000000
vn 0.000000 1.000000 -0.000000
vn 0.000000 1.000000 -0.000000
vn 0.000000 1.000000 -0.000000
vn 1.000000 0.000000 0.000000
vn 1.000000 0.000000 0.000000
vn 1.000000 0.000000 0.000000
vn 1.000000 0.000000 0.000000
vn -1.000000 0.000000 -0.000000
vn -1.000000 0.000000 -0.000000
vn -1.000000 0.000000 -0.000000
vn -1.000000 0.000000 -0.000000
vn 0.000000 0.000000 1.000000
vn 0.000000 0.000000 1.000000
vn 0.000000 0.000000 1.000000
vn 0.000000 0.000000 1.000000
vn 0.000000 -1.000000 0.000000
vn 0.000000 -1.000000 0.000000
vn 0.000000 -1.000000 0.000000
vn 0.000000 -1.000000 0.000000
vn 0.000000 1.000000 -0.000000
vn 0.000000 1.000000 -0.000000
vn 0.000000 1.000000 -0.000000
vn 0.000000 1.000000 -0.000000
vn 1.000000 0.000000 0.000000
vn 1.000000 0.000000 0.000000
vn 1.000000 0.000000 0.000000
vn 1.000000 0.000000 0.000000
vn -1.000000 0.000000 -0.000000
vn -1.000000 0.000000 -0.000000
vn -1.000000 0.000000 -0.000000
vn -1.000000 0.000000 -0.000000
vn 0.000000 0.000000 1.000000
vn 0.000000 0.000000 1.000000
vn 0.000000 0.000000 1.000000
vn 0.000000 0.000000 1.000000
vn -1.000000 0.000000 -0.000000
vn -1.000000 0.000000 -0.000000
vn -1.000000 0.000000 -0.000000
vn -1.000000 0.000000 -0.000000
vn 0.000000 -0.000000 -1.000000
vn 0.000000 -0.000000 -1.000000
vn 0.000000 -0.000000 -1.000000
vn 0.000000 -0.000000 -1.000000
vn 1.000000 0.000000 0.000000
vn 1.000000 0.000000 0.000000
vn 1.000000 0.000000 0.000000
vn 1.000000 0.000000 0.000000
vn 0.000000 0.000000 1.000000
vn 0.000000 0.000000 1.000000
vn 0.000000 0.000000 1.000000
vn 0.000000 0.000000 1.000000
vn 0.000000 -1.000000 0.000000
vn 0.000000 -1.000000 0.000000
vn 0.000000 -1.000000 0.000000
vn 0.000000 -1.000000 0.000000
vn 0.000000 1.000000 -0.000000
vn 0.000000 1.000000 -0.000000
vn 0.000000 1.000000 -0.000000
vn 0.000000 1.000000 -0.000000
vn 0.000000 1.000000 -0.000000
vn 0.000000 1.000000 -0.000000
vn 0.000000 1.000000 -0.000000
vn 0.000000 1.000000 -0.000000
vn 1.000000 0.000000 0.000000
vn 1.000000 0.000000 0.000000
vn 1.000000 0.000000 0.000000
vn 1.000000 0.000000 0.000000
vn 0.000000 -0.000000 -1.000000
vn 0.000000 -0.000000 -1.000000
vn 0.000000 -0.000000 -1.000000
vn 0.000000 -0.000000 -1.000000
vn -1.000000 0.000000 -0.000000
vn -1.000000 0.000000 -0.000000
vn -1.000000 0.000000 -0.000000
vn -1.000000 0.000000 -0.000000
vn 0.000000 0.000000 1.000000
vn 0.000000 0.000000 1.000000
vn 0.000000 0.000000 1.000000
vn 0.000000 0.000000 1.000000
vn -1.000000 0.000000 -0.000000
vn -1.000000 0.000000 -0.000000
vn -1.000000 0.000000 -0.000000
vn -1.000000 0.000000 -0.000000
vn 0.000000 -1.000000 0.000000
vn 0.000000 -1.000000 0.000000
vn 0.000000 -1.000000 0.000000
vn 0.000000 -1.000000 0.000000
vn 1.000000 0.000000 0.000000
vn 1.000000 0.000000 0.000000
vn 1.000000 0.000000 0.000000
vn 1.000000 0.000000 0.000000
vn -1.000000 0.000000 -0.000000
vn -1.000000 0.000000 -0.000000
vn -1.000000 0.000000 -0.000000
vn -1.000000 0.000000 -0.000000
vn 0.000000 1.000000 -0.000000
vn 0.000000 1.000000 -0.000000
vn 0.000000 1.000000 -0.000000
vn 0.000000 1.000000 -0.000000
vn 1.000000 0.000000 0.000000
vn 1.000000 0.000000 0.000000
vn 1.000000 0.000000 0.000000
vn 1.000000 0.000000 0.000000
vn 0.000000 0.000000 1.000000
vn 0.000000 0.000000 1.000000
vn 0.000000 0.000000 1.000000
vn 0.000000 0.000000 1.000000
vn 0.000000 -0.999387 0.035002
vn 0.000000 -0.999387 0.035002
vn 0.000000 -0.999387 0.035002
vn 0.000000 -0.999387 0.035002
vn 0.000000 1.000000 -0.000000
vn 0.000000 1.000000 -0.000000
vn 0.000000 1.000000 -0.000000
vn 0.000000 1.000000 -0.000000
vn 0.000000 -0.000000 -1.000000
vn 0.000000 -0.000000 -1.000000
vn 0.000000 -0.000000 -1.000000
vn 0.000000 -0.000000 -1.000000
vn -1.000000 0.000000 -0.000000
vn -1.000000 0.000000 -0.000000
vn -1.000000 0.000000 -0.000000
vn -1.000000 0.000000 -0.000000
vn 1.000000 0.000000 0.000001
vn 1.000000 0.000000 0.000001
vn 1.000000 0.000000 0.000001
vn 1.000000 0.000000 0.000001
vn -1.000000 0.000000 0.000001
vn -1.000000 0.000000 0.000001
vn -1.000000 0.000000 0.000001
vn -1.000000 0.000000 0.000001
vn 0.000000 -0.875019 0.484088
vn 0.000000 -0.875019 0.484088
vn 0.000000 -0.875019 0.484088
vn 0.000000 -0.875019 0.484088
vn 1.000000 -0.000000 -0.000001
vn 1.000000 -0.000000 -0.000001
vn 1.000000 -0.000000 -0.000001
vn 1.000000 -0.000000 -0.000001
vn 0.000000 -0.221685 0.975118
vn 0.000000 -0.221685 0.975118
vn 0.000000 -0.221685 0.975118
vn 0.000000 -0.221685 0.975118
vn 0.000000 -0.000000 -1.000000
vn 0.000000 -0.000000 -1.000000
vn 0.000000 -0.000000 -1.000000
vn 0.000000 -0.000000 -1.000000
vn -1.000000 0.000000 -0.000000
vn -1.000000 0.000000 -0.000000
vn -1.000000 0.000000 -0.000000
vn -1.000000 0.000000 -0.000000
vn 0.000000 1.000000 -0.000000
vn 0.000000 1.000000 -0.000000
vn 0.000000 1.000000 -0.000000
vn 0.000000 1.000000 -0.000000
vn 1.000000 -0.000000 -0.000000
vn 1.000000 -0.000000 -0.000000
vn 1.000000 -0.000000 -0.000000
vn 1.000000 -0.000000 -0.000000
vn 0.000000 0.000000 1.000000
vn 0.000000 0.000000 1.000000
vn 0.000000 0.000000 1.000000
vn 0.000000 0.000000 1.000000
vn 0.000000 -0.999387 0.035002
vn 0.000000 -0.999387 0.035002
vn 0.000000 -0.999387 0.035002
vn 0.000000 -0.999387 0.035002
vn 0.000000 1.000000 -0.000000
vn 0.000000 1.000000 -0.000000
vn 0.000000 1.000000 -0.000000
vn 0.000000 1.000000 -0.000000
vn 0.000000 -0.000000 -1.000000
vn 0.000000 -0.000000 -1.000000
vn 0.000000 -0.000000 -1.000000
vn 0.000000 -0.000000 -1.000000
vn -1.000000 0.000000 -0.000000
vn -1.000000 0.000000 -0.000000
vn -1.000000 0.000000 -0.000000
vn -1.000000 0.000000 -0.000000
vn 1.000000 0.000000 0.000000
vn 1.000000 0.000000 0.000000
vn 1.000000 0.000000 0.000000
vn 1.000000 0.000000 0.000000
vn -1.000000 -0.000000 -0.000001
vn -1.000000 -0.000000 -0.000001
vn -1.000000 -0.000000 -0.000001
vn -1.000000 -0.000000 -0.000001
vn 0.000000 -0.875018 0.484091
vn 0.000000 -0.875018 0.484091
vn 0.000000 -0.875018 0.484091
vn 0.000000 -0.875018 0.484091
vn 1.000000 0.000000 0.000001
vn 1.000000 0.000000 0.000001
vn 1.000000 0.000000 0.000001
vn 1.000000 0.000000 0.000001
vn 0.000000 -0.221685 0.975118
vn 0.000000 -0.221685 0.975118
vn 0.000000 -0.221685 0.975118
vn 0.000000 -0.221685 0.975118
vn 0.000000 -0.000000 -1.000000
vn 0.000000 -0.000000 -1.000000
vn 0.000000 -0.000000 -1.000000
vn 0.000000 -0.000000 -1.000000
vn 1.000000 0.000000 0.000000
vn 1.000000 0.000000 0.000000
vn 1.000000 0.000000 0.000000
vn 1.000000 0.000000 0.000000
vn 0.000000 1.000000 -0.000000
vn 0.000000 1.000000 -0.000000
vn 0.000000 1.000000 -0.000000
vn 0.000000 1.000000 -0.000000
vn -1.000000 0.000000 -0.000000
vn -1.000000 0.000000 -0.000000
vn -1.000000 0.000000 -0.000000
vn -1.000000 0.000000 -0.000000
vn 0.000000 0.000000 1.000000
vn 0.000000 0.000000 1.000000
vn 0.000000 0.000000 1.000000
vn 0.000000 0.000000 1.000000
vn 0.000000 -0.999387 0.035002
vn 0.000000 -0.999387 0.035002
vn 0.000000 -0.999387 0.035002
vn 0.000000 -0.999387 0.035002
vn 0.000000 1.000000 -0.000000
vn 0.000000 1.000000 -0.000000
vn 0.000000 1.000000 -0.000000
vn 0.000000 1.000000 -0.000000
vn 0.000000 -0.000000 -1.000000
vn 0.000000 -0.000000 -1.000000
vn 0.000000 -0.000000 -1.000000
vn 0.000000 -0.000000 -1.000000
vn 1.000000 0.000000 0.000000
vn 1.000000 0.000000 0.000000
vn 1.000000 0.000000 0.000000
vn 1.000000 0.000000 0.000000
vn -1.000000 0.000000 0.000001
vn -1.000000 0.000000 0.000001
vn -1.000000 0.000000 0.000001
vn -1.000000 0.000000 0.000001
vn 1.000000 0.000000 0.000002
vn 1.000000 0.000000 0.000002
vn 1.000000 0.000000 0.000002
vn 1.000000 0.000000 0.000002
vn 0.000000 -0.875019 0.484089
vn 0.000000 -0.875019 0.484089
vn 0.000000 -0.875019 0.484089
vn 0.000000 -0.875019 0.484089
vn -1.000000 0.000000 -0.000000
vn -1.000000 0.000000 -0.000000
vn -1.000000 0.000000 -0.000000
vn -1.000000 0.000000 -0.000000
vn 0.000000 -0.221685 0.975118
vn 0.000000 -0.221685 0.975118
vn 0.000000 -0.221685 0.975118
vn 0.000000 -0.221685 0.975118
vn 0.000000 -0.000000 -1.000000
vn 0.000000 -0.000000 -1.000000
vn 0.000000 -0.000000 -1.000000
vn 0.000000 -0.000000 -1.000000
vn 1.000000 0.000000 0.000000
vn 1.000000 0.000000 0.000000
vn 1.000000 0.000000 0.000000
vn 1.000000 0.000000 0.000000
vn 0.000000 1.000000 -0.000000
vn 0.000000 1.000000 -0.000000
vn 0.000000 1.000000 -0.000000
vn 0.000000 1.000000 -0.000000
vn -1.000000 0.000000 -0.000000
vn -1.000000 0.000000 -0.000000
vn -1.000000 0.000000 -0.000000
vn -1.000000 0.000000 -0.000000
vn 0.000000 0.000000 1.000000
vn 0.000000 0.000000 1.000000
vn 0.000000 0.000000 1.000000
vn 0.000000 0.000000 1.000000
vn 0.000000 -0.999387 0.035002
vn 0.000000 -0.999387 0.035002
vn 0.000000 -0.999387 0.035002
vn 0.000000 -0.999387 0.035002
vn 0.000000 1.000000 -0.000000
vn 0.000000 1.000000 -0.000000
vn 0.000000 1.000000 -0.000000
vn 0.000000 1.000000 -0.000000
vn 0.000000 -0.000000 -1.000000
vn 0.000000 -0.000000 -1.000000
vn 0.000000 -0.000000 -1.000000
vn 0.000000 -0.000000 -1.000000
vn 1.000000 0.000000 0.000000
vn 1.000000 0.000000 0.000000
vn 1.000000 0.000000 0.000000
vn 1.000000 0.000000 0.000000
vn -1.000000 0.000000 0.000001
vn -1.000000 0.000000 0.000001
vn -1.000000 0.000000 0.000001
vn -1.000000 0.000000 0.000001
vn 1.000000 0.000000 0.000000
vn 1.000000 0.000000 0.000000
vn 1.000000 0.000000 0.000000
vn 1.000000 0.000000 0.000000
vn 0.000000 -0.875018 0.484091
vn 0.000000 -0.875018 0.484091
vn 0.000000 -0.875018 0.484091
vn 0.000000 -0.875018 0.484091
vn -1.000000 0.000000 0.000001
vn -1.000000 0.000000 0.000001
vn -1.000000 0.000000 0.000001
vn -1.000000 0.000000 0.000001
vn 0.000000 -0.221685 0.975118
vn 0.000000 -0.221685 0.975118
vn 0.000000 -0.221685 0.975118
vn 0.000000 -0.221685 0.975118
vn 0.000000 -0.000000 -1.000000
vn 0.000000 -0.000000 -1.000000
vn 0.000000 -0.000000 -1.000000
vn 0.000000 -0.000000 -1.000000
s off
g ShelvingFBXASC046003
usemtl ShelvingFBXASC046003SG
f 2/262/1 3/213/2 4/224/3 1/49/4
f 6/50/5 5/85/6 8/5/7 7/65/8
f 3/39/9 2/32/10 6/103/11 7/195/12
f 1/189/13 4/135/14 8/42/15 5/260/16
f 4/250/17 3/192/18 7/117/19 8/40/20
f 10/158/21 11/108/22 12/59/23 9/201/24
f 14/202/25 13/242/26 16/168/27 15/149/28
f 11/118/29 10/174/30 14/200/31 15/142/32
f 9/66/33 12/263/34 16/252/35 13/21/36
f 12/265/37 11/237/38 15/169/39 16/194/40
f 25/187/41 18/57/42 20/229/43 26/225/44
f 26/115/45 20/230/46 24/206/47 27/18/48
f 27/86/49 24/209/50 22/123/51 28/170/52
f 28/235/53 22/236/54 18/130/55 25/258/56
f 19/244/57 23/46/58 21/11/59 17/218/60
f 24/97/61 20/126/62 18/208/63 22/12/64
f 28/4/65 25/33/66 32/193/67 29/101/68
f 23/35/69 27/86/70 28/170/71 21/116/72
f 19/6/73 26/139/74 27/28/75 23/121/76
f 17/264/77 25/187/78 26/225/79 19/156/80
f 30/132/81 29/102/82 32/164/83 31/7/84
f 25/43/85 17/41/86 31/14/87 32/8/88
f 17/218/89 21/11/90 30/34/91 31/254/92
f 21/144/93 28/232/94 29/75/95 30/98/96
f 33/10/97 34/143/98 36/94/99 35/111/100
f 36/141/101 40/74/102 44/47/103 41/82/104
f 39/154/105 40/133/106 38/196/107 37/88/108
f 37/125/109 38/110/110 34/171/111 33/231/112
f 35/227/113 39/162/114 37/175/115 33/188/116
f 40/74/117 36/141/118 34/29/119 38/71/120
f 42/150/121 41/217/122 44/182/123 43/157/124
f 35/111/125 36/94/126 41/22/127 42/25/128
f 40/133/129 39/154/130 43/203/131 44/221/132
f 35/111/133 42/25/134 48/15/135 46/176/136
f 45/198/137 46/90/138 48/68/139 47/238/140
f 43/203/141 39/154/142 45/67/143 47/99/144
f 39/140/145 35/247/146 46/163/147 45/96/148
f 42/150/149 43/157/150 47/120/151 48/134/152
f 49/185/153 50/26/154 52/239/155 51/44/156
f 52/124/157 56/60/158 60/24/159 57/72/160
f 55/148/161 56/23/162 54/9/163 53/84/164
f 53/205/165 54/253/166 50/93/167 49/13/168
f 51/216/169 55/136/170 53/155/171 49/165/172
f 56/60/173 52/124/174 50/180/175 54/53/176
f 58/51/177 57/77/178 60/62/179 59/243/180
f 51/44/181 52/239/182 57/212/183 58/257/184
f 56/23/185 55/148/186 59/177/187 60/145/188
f 51/44/189 58/257/190 64/246/191 62/240/192
f 61/184/193 62/79/194 64/52/195 63/223/196
f 59/177/197 55/148/198 61/70/199 63/73/200
f 55/146/201 51/16/202 62/259/203 61/95/204
f 58/51/205 59/243/206 63/2/207 64/91/208
f 65/137/209 67/45/210 68/27/211 66/113/212
f 68/190/213 73/119/214 76/183/215 72/81/216
f 71/151/217 69/191/218 70/76/219 72/128/220
f 69/241/221 65/104/222 66/17/223 70/228/224
f 67/1/225 65/219/226 69/181/227 71/167/228
f 72/81/229 70/30/230 66/266/231 68/190/232
f 74/261/233 75/36/234 76/105/235 73/256/236
f 67/45/237 74/64/238 73/61/239 68/27/240
f 72/128/241 76/255/242 75/172/243 71/151/244
f 67/45/245 78/207/246 80/55/247 74/64/248
f 77/251/249 79/122/250 80/80/251 78/63/252
f 75/172/253 79/127/254 77/37/255 71/151/256
f 71/173/257 77/197/258 78/147/259 67/54/260
f 74/261/261 80/248/262 79/245/263 75/36/264
f 81/178/265 83/112/266 84/233/267 82/152/268
f 84/166/269 89/106/270 92/160/271 88/69/272
f 87/153/273 85/214/274 86/199/275 88/20/276
f 85/211/277 81/56/278 82/161/279 86/31/280
f 83/249/281 81/204/282 85/159/283 87/220/284
f 88/69/285 86/3/286 82/58/287 84/166/288
f 90/83/289 91/179/290 92/89/291 89/131/292
f 83/112/293 90/38/294 89/186/295 84/233/296
f 88/20/297 92/114/298 91/129/299 87/153/300
f 83/112/301 94/210/302 96/215/303 90/38/304
f 93/109/305 95/92/306 96/87/307 94/48/308
f 91/129/309 95/107/310 93/100/311 87/153/312
f 87/19/313 93/226/314 94/222/315 83/234/316
f 90/83/317 96/78/318 95/138/319 91/179/320
