# This file uses centimeters as units for non-parametric coordinates.

mtllib greenfloor.mtl
g default
v -1048.920001 -10.782447 886.241474
v 1021.721266 -10.782447 886.241474
v 1021.721266 -10.782447 -886.241474
v -1048.920001 -10.782447 -886.241474
vt 0.000000 1.000000
vt 0.000000 1.000000
vt 0.000000 1.000000
vt 0.000000 1.000000
vn 0.000000 1.000000 0.000000
vn 0.000000 1.000000 0.000000
vn 0.000000 1.000000 0.000000
vn 0.000000 1.000000 0.000000
vn 0.000000 1.000000 0.000000
vn 0.000000 1.000000 0.000000
s off
g greenfloor:Plane_0Plane_0PlaneRootSketchfab_modelMeshesscene
usemtl greenfloor:Material_004
f 1/1/1 2/2/2 3/3/3
f 1/1/4 3/3/5 4/4/6
