# This file uses centimeters as units for non-parametric coordinates.

mtllib parking.mtl
g default
v -472.851094 -5.098811 282.381000
v -504.852703 -5.098811 597.669516
v -320.628961 -5.098811 597.669516
v 232.035375 -5.098811 597.669516
v 612.989156 -5.098811 597.669516
v 450.869578 -5.098811 282.381000
v 437.559375 -5.098811 269.064047
v 437.552625 -5.098811 55.522553
v -421.326984 -5.098811 55.522553
v -434.637187 -5.098811 282.381000
v -421.326984 -5.098811 269.070844
v -507.550125 -5.098811 830.093156
v -321.977695 -5.098811 830.093156
v -320.628961 -5.098811 597.669516
v -504.852703 -5.098811 597.669516
v -507.550125 -5.098811 618.929016
v 606.020766 -5.098811 605.196516
v 615.836437 -5.098811 603.166594
v 612.989156 -5.098811 597.669516
v 232.035375 -5.098811 597.669516
v 231.953625 -5.098811 830.093156
v 592.465359 -5.098811 830.093156
v 592.465359 -5.098811 633.294984
v 592.560750 -5.098811 626.367422
v 597.798984 -5.098811 611.381578
v 593.800500 -5.098811 618.915375
v 231.953625 -5.098811 830.093156
v 232.035375 -5.098811 597.669516
v -136.412051 -5.098811 597.669516
v -136.412051 -5.098811 830.093156
v -136.412051 -5.098811 830.093156
v -136.412051 -5.098811 597.669516
v -320.628961 -5.098811 597.669516
v -321.977695 -5.098811 830.093156
vt 0.333010 0.098630
vt 0.315630 0.234950
vt 0.396600 0.234940
vt 0.639530 0.234930
vt 0.801480 0.234930
vt 0.729490 0.098630
vt 0.723630 0.092770
vt 0.723630 0.000000
vt 0.355470 0.000000
vt 0.349610 0.098630
vt 0.355470 0.092770
vt 0.350080 0.000000
vt 0.430680 0.000000
vt 0.431630 0.101800
vt 0.351970 0.101800
vt 0.350080 0.093070
vt 0.730270 0.098890
vt 0.734980 0.099860
vt 0.733090 0.101800
vt 0.574710 0.101800
vt 0.574710 0.000000
vt 0.724610 0.000000
vt 0.724610 0.086290
vt 0.724610 0.089200
vt 0.727440 0.095980
vt 0.725550 0.093070
vt 0.711910 0.000000
vt 0.711910 0.101560
vt 0.552730 0.101560
vt 0.552730 0.000000
vt 0.693900 0.000000
vt 0.693900 0.101800
vt 0.614240 0.101800
vt 0.613300 0.000000
vn 0.000000 1.000000 0.000000
vn 0.000000 1.000000 0.000000
vn 0.000000 1.000000 0.000000
vn 0.000000 1.000000 0.000000
vn 0.000000 1.000000 0.000000
vn 0.000000 1.000000 0.000000
vn 0.000000 1.000000 0.000000
vn 0.000000 1.000000 0.000000
vn 0.000000 1.000000 0.000000
vn 0.000000 1.000000 0.000000
vn 0.000000 1.000000 0.000000
vn 0.000000 1.000000 0.000000
vn 0.000000 1.000000 0.000000
vn 0.000000 1.000000 0.000000
vn 0.000000 1.000000 0.000000
vn 0.000000 1.000000 0.000000
vn 0.000000 1.000000 0.000000
vn 0.000000 1.000000 0.000000
vn 0.000000 1.000000 0.000000
vn 0.000000 1.000000 0.000000
vn 0.000000 1.000000 0.000000
vn 0.000000 1.000000 0.000000
vn 0.000000 1.000000 0.000000
vn 0.000000 1.000000 0.000000
vn 0.000000 1.000000 0.000000
vn 0.000000 1.000000 0.000000
vn 0.000000 1.000000 0.000000
vn 0.000000 1.000000 0.000000
vn 0.000000 1.000000 0.000000
vn 0.000000 1.000000 0.000000
vn 0.000000 1.000000 0.000000
vn 0.000000 1.000000 0.000000
vn 0.000000 1.000000 0.000000
vn 0.000000 1.000000 0.000000
vn 0.000000 1.000000 0.000000
vn 0.000000 1.000000 0.000000
vn 0.000000 1.000000 0.000000
vn 0.000000 1.000000 0.000000
vn 0.000000 1.000000 0.000000
vn 0.000000 1.000000 0.000000
vn 0.000000 1.000000 0.000000
vn 0.000000 1.000000 0.000000
vn 0.000000 1.000000 0.000000
vn 0.000000 1.000000 0.000000
vn 0.000000 1.000000 0.000000
vn 0.000000 1.000000 0.000000
vn 0.000000 1.000000 0.000000
vn 0.000000 1.000000 0.000000
vn 0.000000 1.000000 0.000000
vn 0.000000 1.000000 0.000000
vn 0.000000 1.000000 0.000000
vn 0.000000 1.000000 0.000000
vn 0.000000 1.000000 0.000000
vn 0.000000 1.000000 0.000000
vn 0.000000 1.000000 0.000000
vn 0.000000 1.000000 0.000000
vn 0.000000 1.000000 0.000000
vn 0.000000 1.000000 0.000000
vn 0.000000 1.000000 0.000000
vn 0.000000 1.000000 0.000000
vn 0.000000 1.000000 0.000000
vn 0.000000 1.000000 0.000000
vn 0.000000 1.000000 0.000000
vn 0.000000 1.000000 0.000000
vn 0.000000 1.000000 0.000000
vn 0.000000 1.000000 0.000000
vn 0.000000 1.000000 0.000000
vn 0.000000 1.000000 0.000000
vn 0.000000 1.000000 0.000000
vn 0.000000 1.000000 0.000000
vn 0.000000 1.000000 0.000000
vn 0.000000 1.000000 0.000000
s off
g parking:Plane_003_2Plane_003_2Plane_003RootSketchfab_modelMeshesscene
usemtl parking:Material_005
f 1/1/1 2/2/2 3/3/3
f 4/4/4 5/5/5 6/6/6
f 7/7/7 8/8/8 9/9/9
f 4/4/10 6/6/11 7/7/12
f 1/1/13 3/3/14 4/4/15
f 10/10/16 1/1/17 4/4/18
f 4/4/19 7/7/20 9/9/21
f 11/11/22 10/10/23 4/4/24
f 4/4/25 9/9/26 11/11/27
f 12/12/28 13/13/29 14/14/30
f 14/14/31 15/15/32 16/16/33
f 14/14/34 16/16/35 12/12/36
f 17/17/37 18/18/38 19/19/39
f 19/19/40 20/20/41 21/21/42
f 21/21/43 22/22/44 23/23/45
f 21/21/46 23/23/47 24/24/48
f 17/17/49 19/19/50 21/21/51
f 25/25/52 17/17/53 21/21/54
f 21/21/55 24/24/56 26/26/57
f 26/26/58 25/25/59 21/21/60
f 27/27/61 28/28/62 29/29/63
f 27/27/64 29/29/65 30/30/66
f 31/31/67 32/32/68 33/33/69
f 31/31/70 33/33/71 34/34/72
